<?xml version="1.0" encoding="UTF-8" standalone="no"?>
<!-- Created with Inkscape (http://www.inkscape.org/) -->

<svg
   xmlns:dc="http://purl.org/dc/elements/1.1/"
   xmlns:cc="http://creativecommons.org/ns#"
   xmlns:rdf="http://www.w3.org/1999/02/22-rdf-syntax-ns#"
   xmlns:svg="http://www.w3.org/2000/svg"
   xmlns="http://www.w3.org/2000/svg"
   xmlns:sodipodi="http://sodipodi.sourceforge.net/DTD/sodipodi-0.dtd"
   xmlns:inkscape="http://www.inkscape.org/namespaces/inkscape"
   version="1.1"
   id="svg2"
   xml:space="preserve"
   width="765.59869"
   height="874.2674"
   viewBox="0 0 765.59869 874.2674"
   sodipodi:docname="TAILOR-MOOC-tai.svg"
   inkscape:version="0.92.5 (2060ec1f9f, 2020-04-08)"><metadata
     id="metadata8"><rdf:RDF><cc:Work
         rdf:about=""><dc:format>image/svg+xml</dc:format><dc:type
           rdf:resource="http://purl.org/dc/dcmitype/StillImage" /><dc:title /></cc:Work></rdf:RDF></metadata><defs
     id="defs6"><clipPath
       clipPathUnits="userSpaceOnUse"
       id="clipPath18"><path
         d="m 565.437,400.089 c 0.007,-0.024 0.017,-0.036 0.023,-0.079 v 0 c -0.005,0.036 -0.002,0.05 -0.005,0.08 v 0 z"
         id="path16"
         inkscape:connector-curvature="0" /></clipPath><linearGradient
       x1="0"
       y1="0"
       x2="1"
       y2="0"
       gradientUnits="userSpaceOnUse"
       gradientTransform="matrix(0.0235596,0,0,-0.0235596,565.4364,400.05023)"
       spreadMethod="pad"
       id="linearGradient30"><stop
         style="stop-opacity:1;stop-color:#009ee2"
         offset="0"
         id="stop24" /><stop
         style="stop-opacity:1;stop-color:#29235c"
         offset="0.996396"
         id="stop26" /><stop
         style="stop-opacity:1;stop-color:#29235c"
         offset="1"
         id="stop28" /></linearGradient><clipPath
       clipPathUnits="userSpaceOnUse"
       id="clipPath40"><path
         d="m 362.011,388.493 v -17.974 l -14.12,-8.487 v -36.587 l 14.662,-7.875 v -17.146 l 31.437,-18.338 21.869,18.179 c 4.091,-8.801 13.721,-15.611 25.453,-15.611 v 0 c 11.31,0 20.651,6.333 21.965,14.473 v 0 c 1.61,-0.499 3.299,-0.765 5.011,-0.765 v 0 c 2.69,0 5.433,0.637 7.993,1.982 v 0 c 7.767,4.08 11.121,13.233 7.964,20.988 v 0 c 3.822,2.382 6.75,5.786 8.313,9.735 v 0 c 1.755,4.434 1.592,9.01 -0.45,12.901 v 0 c 1.203,2.283 1.892,4.876 1.892,7.63 v 0 c 0,8.403 -6.34,15.342 -14.486,16.312 v 0 c 0.414,1.846 0.653,3.78 0.653,5.785 v 0 c 0,11.281 -8.505,21.19 -18.416,21.778 v 0 c -2.747,6.225 -8.811,11.933 -18.012,13.906 v 0 c -7.071,1.512 -15.072,-0.133 -19.466,-4.005 v 0 c -0.631,-0.557 -1.174,-1.146 -1.627,-1.762 v 0 c -1.171,-1.596 -1.733,-3.375 -1.658,-5.245 v 0 l -3.295,2.705 -15.438,12.674 z m 18.408,-27.967 -16.081,9.982 v 16.697 L 401,410.21 v -22.737 l 5.769,-5.769 v -17.006 h 2.328 v 17.97 l -5.768,5.769 v 21.416 l 13.4,-10.997 3.37,-2.572 c 0.787,-0.762 1.28,-0.841 2.073,-0.536 v 0 c 0.679,0.26 1.1,0.879 1.154,1.697 v 0 l -0.008,0.752 c -0.213,2.485 1.24,4.324 2.494,5.431 v 0 c 3.877,3.414 11.048,4.845 17.438,3.474 v 0 c 11.608,-2.488 17.872,-11.776 17.872,-19.252 v 0 c 0,-7.781 -6.329,-14.111 -14.109,-14.111 v 0 -2.329 c 9.063,0 16.438,7.376 16.438,16.44 v 0 c 0,1.694 -0.273,3.449 -0.796,5.197 v 0 c 7.506,-1.134 15.184,-9.029 15.184,-19.352 v 0 c 0,-10.756 -6.921,-19.507 -15.427,-19.507 v 0 -2.328 c 7.477,0 13.874,5.719 16.487,13.78 v 0 c 7.155,-0.676 12.773,-6.714 12.773,-14.042 v 0 c 0,-7.779 -6.331,-14.11 -14.11,-14.11 v 0 -2.328 c 5.32,0 10.045,2.552 13.051,6.485 v 0 c 1.162,-2.998 1.096,-6.397 -0.219,-9.721 v 0 c -1.537,-3.883 -4.582,-7.192 -8.573,-9.316 v 0 c -8.174,-4.353 -17.8,-2.304 -21.455,4.563 v 0 l -2.055,-1.094 c 2.774,-5.209 8.419,-8.078 14.591,-8.078 v 0 c 3.063,0 6.253,0.717 9.287,2.195 v 0 c 2.53,-6.603 -0.381,-14.316 -6.991,-17.789 v 0 c -7.11,-3.736 -15.838,-1.169 -19.455,5.719 v 0 l -2.062,-1.084 c 1.678,-3.196 4.299,-5.588 7.363,-7.045 v 0 c -0.791,-7.267 -9.329,-13.013 -19.732,-13.013 v 0 c -10.923,0 -20.982,8.366 -24.766,16.402 v 0 l -0.512,-0.901 -0.178,0.854 -22.129,-18.402 -28.845,16.825 v 15.823 l 14.904,8.302 12.095,-7.194 v -17.599 h 2.327 v 18.923 l -13.238,7.875 v 16.05 l 14.324,8.417 v 18.861 h -2.328 V 353.69 l -14.325,-8.418 v -9.118 l -19.723,12.73 -1.263,-1.957 20.986,-13.545 v -5.47 l -14.934,-8.318 -13.489,7.244 v 15.746 2.786 15.345 l 12.947,7.78 16.027,-9.948 z"
         id="path38"
         inkscape:connector-curvature="0" /></clipPath><linearGradient
       x1="0"
       y1="0"
       x2="1"
       y2="0"
       gradientUnits="userSpaceOnUse"
       gradientTransform="matrix(146.10986,0,0,-146.10986,347.89008,347.91559)"
       spreadMethod="pad"
       id="linearGradient52"><stop
         style="stop-opacity:1;stop-color:#3cbeec"
         offset="0"
         id="stop46" /><stop
         style="stop-opacity:1;stop-color:#28316d"
         offset="0.996397"
         id="stop48" /><stop
         style="stop-opacity:1;stop-color:#28316d"
         offset="1"
         id="stop50" /></linearGradient><clipPath
       clipPathUnits="userSpaceOnUse"
       id="clipPath62"><path
         d="m 354.997,347.906 c 0,-1.817 1.472,-3.291 3.29,-3.291 v 0 c 1.817,0 3.29,1.474 3.29,3.291 v 0 c 0,1.817 -1.473,3.29 -3.29,3.29 v 0 c -1.818,0 -3.29,-1.473 -3.29,-3.29"
         id="path60"
         inkscape:connector-curvature="0" /></clipPath><linearGradient
       x1="0"
       y1="0"
       x2="1"
       y2="0"
       gradientUnits="userSpaceOnUse"
       gradientTransform="matrix(6.5802784,0,0,-6.5802784,354.99677,347.90564)"
       spreadMethod="pad"
       id="linearGradient74"><stop
         style="stop-opacity:1;stop-color:#3cbeec"
         offset="0"
         id="stop68" /><stop
         style="stop-opacity:1;stop-color:#28316d"
         offset="0.996396"
         id="stop70" /><stop
         style="stop-opacity:1;stop-color:#28316d"
         offset="1"
         id="stop72" /></linearGradient><clipPath
       clipPathUnits="userSpaceOnUse"
       id="clipPath84"><path
         d="m 390.718,304.097 c -1.285,-1.285 -1.285,-3.367 0,-4.653 v 0 c 1.284,-1.285 3.368,-1.285 4.653,0 v 0 c 1.285,1.286 1.285,3.368 0,4.653 v 0 c -0.643,0.643 -1.485,0.964 -2.327,0.964 v 0 c -0.842,0 -1.684,-0.321 -2.326,-0.964"
         id="path82"
         inkscape:connector-curvature="0" /></clipPath><linearGradient
       x1="0"
       y1="0"
       x2="1"
       y2="0"
       gradientUnits="userSpaceOnUse"
       gradientTransform="matrix(6.5802784,0,0,-6.5802784,389.75406,301.77081)"
       spreadMethod="pad"
       id="linearGradient96"><stop
         style="stop-opacity:1;stop-color:#3cbeec"
         offset="0"
         id="stop90" /><stop
         style="stop-opacity:1;stop-color:#28316d"
         offset="0.996397"
         id="stop92" /><stop
         style="stop-opacity:1;stop-color:#28316d"
         offset="1"
         id="stop94" /></linearGradient><clipPath
       clipPathUnits="userSpaceOnUse"
       id="clipPath106"><path
         d="m 376.515,359.536 c 0,-1.817 1.473,-3.29 3.29,-3.29 v 0 c 1.817,0 3.291,1.473 3.291,3.29 v 0 c 0,1.818 -1.474,3.291 -3.291,3.291 v 0 c -1.817,0 -3.29,-1.473 -3.29,-3.291"
         id="path104"
         inkscape:connector-curvature="0" /></clipPath><linearGradient
       x1="0"
       y1="0"
       x2="1"
       y2="0"
       gradientUnits="userSpaceOnUse"
       gradientTransform="matrix(6.5802784,0,0,-6.5802784,376.5152,359.53665)"
       spreadMethod="pad"
       id="linearGradient118"><stop
         style="stop-opacity:1;stop-color:#3cbeec"
         offset="0"
         id="stop112" /><stop
         style="stop-opacity:1;stop-color:#28316d"
         offset="0.996396"
         id="stop114" /><stop
         style="stop-opacity:1;stop-color:#28316d"
         offset="1"
         id="stop116" /></linearGradient><clipPath
       clipPathUnits="userSpaceOnUse"
       id="clipPath128"><path
         d="m 390.84,371.187 c 0,-1.817 1.474,-3.29 3.291,-3.29 v 0 c 1.816,0 3.289,1.473 3.289,3.29 v 0 c 0,1.818 -1.473,3.29 -3.289,3.29 v 0 c -1.817,0 -3.291,-1.472 -3.291,-3.29"
         id="path126"
         inkscape:connector-curvature="0" /></clipPath><linearGradient
       x1="0"
       y1="0"
       x2="1"
       y2="0"
       gradientUnits="userSpaceOnUse"
       gradientTransform="matrix(6.5802784,0,0,-6.5802784,390.84024,371.18729)"
       spreadMethod="pad"
       id="linearGradient140"><stop
         style="stop-opacity:1;stop-color:#3cbeec"
         offset="0"
         id="stop134" /><stop
         style="stop-opacity:1;stop-color:#28316d"
         offset="0.996396"
         id="stop136" /><stop
         style="stop-opacity:1;stop-color:#28316d"
         offset="1"
         id="stop138" /></linearGradient><clipPath
       clipPathUnits="userSpaceOnUse"
       id="clipPath150"><path
         d="M 0,595.28 H 841.89 V 0 H 0 Z"
         id="path148"
         inkscape:connector-curvature="0" /></clipPath><clipPath
       clipPathUnits="userSpaceOnUse"
       id="clipPath162"><path
         d="m 405.607,367.025 c -1.286,-1.286 -1.286,-3.368 0,-4.654 v 0 c 1.285,-1.285 3.367,-1.285 4.653,0 v 0 c 1.285,1.286 1.285,3.368 0,4.654 v 0 c -0.643,0.642 -1.485,0.963 -2.327,0.963 v 0 c -0.842,0 -1.684,-0.321 -2.326,-0.963"
         id="path160"
         inkscape:connector-curvature="0" /></clipPath><linearGradient
       x1="0"
       y1="0"
       x2="1"
       y2="0"
       gradientUnits="userSpaceOnUse"
       gradientTransform="matrix(6.5802784,0,0,-6.5802784,404.64307,364.69812)"
       spreadMethod="pad"
       id="linearGradient174"><stop
         style="stop-opacity:1;stop-color:#3cbeec"
         offset="0"
         id="stop168" /><stop
         style="stop-opacity:1;stop-color:#28316d"
         offset="0.996396"
         id="stop170" /><stop
         style="stop-opacity:1;stop-color:#28316d"
         offset="1"
         id="stop172" /></linearGradient><clipPath
       clipPathUnits="userSpaceOnUse"
       id="clipPath184"><path
         d="M 0,595.28 H 841.89 V 0 H 0 Z"
         id="path182"
         inkscape:connector-curvature="0" /></clipPath></defs><sodipodi:namedview
     pagecolor="#ffffff"
     bordercolor="#666666"
     borderopacity="1"
     objecttolerance="10"
     gridtolerance="10"
     guidetolerance="10"
     inkscape:pageopacity="0"
     inkscape:pageshadow="2"
     inkscape:window-width="956"
     inkscape:window-height="1037"
     id="namedview4"
     showgrid="false"
     fit-margin-top="0"
     fit-margin-left="0"
     fit-margin-right="0"
     fit-margin-bottom="0"
     inkscape:zoom="0.59467814"
     inkscape:cx="256.88083"
     inkscape:cy="483.3585"
     inkscape:window-x="960"
     inkscape:window-y="20"
     inkscape:window-maximized="0"
     inkscape:current-layer="g10" /><g
     id="g10"
     inkscape:groupmode="layer"
     inkscape:label="TAILOR logo - full-color rgb"
     transform="matrix(1.3333333,0,0,-1.3333333,-176.40559,820.77244)"><g
       id="g1139"><path
         style="opacity:1;fill:none;fill-opacity:1;stroke:#37beed;stroke-width:15.375;stroke-linecap:round;stroke-linejoin:round;stroke-miterlimit:4;stroke-dasharray:none;stroke-dashoffset:0.57106102;stroke-opacity:1"
         d="m 201.90826,600.68195 h 446.46006 c 27.94788,0 50.44743,-22.49956 50.44743,-50.44743 V 18.013714 c 0,-27.9478762 -22.49955,-50.44743 -50.44743,-50.44743 H 201.90826 c -27.94788,0 -50.44743,22.4995538 -50.44743,50.44743 V 550.23452 c 0,27.94787 22.49955,50.44743 50.44743,50.44743 z"
         id="rect1108-3"
         inkscape:connector-curvature="0" /><path
         style="opacity:1;fill:#ffffff;fill-opacity:1;stroke:#28306c;stroke-width:15.37500095;stroke-linecap:round;stroke-linejoin:round;stroke-miterlimit:4;stroke-dasharray:none;stroke-dashoffset:0.57106102;stroke-opacity:1"
         d="m 190.43913,607.89185 h 446.46006 c 27.94788,0 50.44743,-22.49956 50.44743,-50.44743 V 25.223614 c 0,-27.9478763 -22.49955,-50.44743 -50.44743,-50.44743 H 190.43913 c -27.94788,0 -50.44743,22.4995537 -50.44743,50.44743 V 557.44442 c 0,27.94787 22.49955,50.44743 50.44743,50.44743 z"
         id="rect1108"
         inkscape:connector-curvature="0" /><g
         transform="translate(-7.2759411,-166.47661)"
         id="g1106"><g
           id="g12"><g
             id="g14"
             clip-path="url(#clipPath18)"><g
               id="g20"><g
                 id="g22"><path
                   d="m 565.437,400.089 c 0.007,-0.024 0.017,-0.036 0.023,-0.079 v 0 c -0.005,0.036 -0.002,0.05 -0.005,0.08 v 0 z"
                   style="fill:url(#linearGradient30);stroke:none"
                   id="path32"
                   inkscape:connector-curvature="0" /></g></g></g></g><g
           id="g34"><g
             id="g36"
             clip-path="url(#clipPath40)"><g
               id="g42"><g
                 id="g44"><path
                   d="m 362.011,388.493 v -17.974 l -14.12,-8.487 v -36.587 l 14.662,-7.875 v -17.146 l 31.437,-18.338 21.869,18.179 c 4.091,-8.801 13.721,-15.611 25.453,-15.611 v 0 c 11.31,0 20.651,6.333 21.965,14.473 v 0 c 1.61,-0.499 3.299,-0.765 5.011,-0.765 v 0 c 2.69,0 5.433,0.637 7.993,1.982 v 0 c 7.767,4.08 11.121,13.233 7.964,20.988 v 0 c 3.822,2.382 6.75,5.786 8.313,9.735 v 0 c 1.755,4.434 1.592,9.01 -0.45,12.901 v 0 c 1.203,2.283 1.892,4.876 1.892,7.63 v 0 c 0,8.403 -6.34,15.342 -14.486,16.312 v 0 c 0.414,1.846 0.653,3.78 0.653,5.785 v 0 c 0,11.281 -8.505,21.19 -18.416,21.778 v 0 c -2.747,6.225 -8.811,11.933 -18.012,13.906 v 0 c -7.071,1.512 -15.072,-0.133 -19.466,-4.005 v 0 c -0.631,-0.557 -1.174,-1.146 -1.627,-1.762 v 0 c -1.171,-1.596 -1.733,-3.375 -1.658,-5.245 v 0 l -3.295,2.705 -15.438,12.674 z m 18.408,-27.967 -16.081,9.982 v 16.697 L 401,410.21 v -22.737 l 5.769,-5.769 v -17.006 h 2.328 v 17.97 l -5.768,5.769 v 21.416 l 13.4,-10.997 3.37,-2.572 c 0.787,-0.762 1.28,-0.841 2.073,-0.536 v 0 c 0.679,0.26 1.1,0.879 1.154,1.697 v 0 l -0.008,0.752 c -0.213,2.485 1.24,4.324 2.494,5.431 v 0 c 3.877,3.414 11.048,4.845 17.438,3.474 v 0 c 11.608,-2.488 17.872,-11.776 17.872,-19.252 v 0 c 0,-7.781 -6.329,-14.111 -14.109,-14.111 v 0 -2.329 c 9.063,0 16.438,7.376 16.438,16.44 v 0 c 0,1.694 -0.273,3.449 -0.796,5.197 v 0 c 7.506,-1.134 15.184,-9.029 15.184,-19.352 v 0 c 0,-10.756 -6.921,-19.507 -15.427,-19.507 v 0 -2.328 c 7.477,0 13.874,5.719 16.487,13.78 v 0 c 7.155,-0.676 12.773,-6.714 12.773,-14.042 v 0 c 0,-7.779 -6.331,-14.11 -14.11,-14.11 v 0 -2.328 c 5.32,0 10.045,2.552 13.051,6.485 v 0 c 1.162,-2.998 1.096,-6.397 -0.219,-9.721 v 0 c -1.537,-3.883 -4.582,-7.192 -8.573,-9.316 v 0 c -8.174,-4.353 -17.8,-2.304 -21.455,4.563 v 0 l -2.055,-1.094 c 2.774,-5.209 8.419,-8.078 14.591,-8.078 v 0 c 3.063,0 6.253,0.717 9.287,2.195 v 0 c 2.53,-6.603 -0.381,-14.316 -6.991,-17.789 v 0 c -7.11,-3.736 -15.838,-1.169 -19.455,5.719 v 0 l -2.062,-1.084 c 1.678,-3.196 4.299,-5.588 7.363,-7.045 v 0 c -0.791,-7.267 -9.329,-13.013 -19.732,-13.013 v 0 c -10.923,0 -20.982,8.366 -24.766,16.402 v 0 l -0.512,-0.901 -0.178,0.854 -22.129,-18.402 -28.845,16.825 v 15.823 l 14.904,8.302 12.095,-7.194 v -17.599 h 2.327 v 18.923 l -13.238,7.875 v 16.05 l 14.324,8.417 v 18.861 h -2.328 V 353.69 l -14.325,-8.418 v -9.118 l -19.723,12.73 -1.263,-1.957 20.986,-13.545 v -5.47 l -14.934,-8.318 -13.489,7.244 v 15.746 2.786 15.345 l 12.947,7.78 16.027,-9.948 z"
                   style="fill:url(#linearGradient52);stroke:none"
                   id="path54"
                   inkscape:connector-curvature="0" /></g></g></g></g><g
           id="g56"><g
             id="g58"
             clip-path="url(#clipPath62)"><g
               id="g64"><g
                 id="g66"><path
                   d="m 354.997,347.906 c 0,-1.817 1.472,-3.291 3.29,-3.291 v 0 c 1.817,0 3.29,1.474 3.29,3.291 v 0 c 0,1.817 -1.473,3.29 -3.29,3.29 v 0 c -1.818,0 -3.29,-1.473 -3.29,-3.29"
                   style="fill:url(#linearGradient74);stroke:none"
                   id="path76"
                   inkscape:connector-curvature="0" /></g></g></g></g><g
           id="g78"><g
             id="g80"
             clip-path="url(#clipPath84)"><g
               id="g86"><g
                 id="g88"><path
                   d="m 390.718,304.097 c -1.285,-1.285 -1.285,-3.367 0,-4.653 v 0 c 1.284,-1.285 3.368,-1.285 4.653,0 v 0 c 1.285,1.286 1.285,3.368 0,4.653 v 0 c -0.643,0.643 -1.485,0.964 -2.327,0.964 v 0 c -0.842,0 -1.684,-0.321 -2.326,-0.964"
                   style="fill:url(#linearGradient96);stroke:none"
                   id="path98"
                   inkscape:connector-curvature="0" /></g></g></g></g><g
           id="g100"><g
             id="g102"
             clip-path="url(#clipPath106)"><g
               id="g108"><g
                 id="g110"><path
                   d="m 376.515,359.536 c 0,-1.817 1.473,-3.29 3.29,-3.29 v 0 c 1.817,0 3.291,1.473 3.291,3.29 v 0 c 0,1.818 -1.474,3.291 -3.291,3.291 v 0 c -1.817,0 -3.29,-1.473 -3.29,-3.291"
                   style="fill:url(#linearGradient118);stroke:none"
                   id="path120"
                   inkscape:connector-curvature="0" /></g></g></g></g><g
           id="g122"><g
             id="g124"
             clip-path="url(#clipPath128)"><g
               id="g130"><g
                 id="g132"><path
                   d="m 390.84,371.187 c 0,-1.817 1.474,-3.29 3.291,-3.29 v 0 c 1.816,0 3.289,1.473 3.289,3.29 v 0 c 0,1.818 -1.473,3.29 -3.289,3.29 v 0 c -1.817,0 -3.291,-1.472 -3.291,-3.29"
                   style="fill:url(#linearGradient140);stroke:none"
                   id="path142"
                   inkscape:connector-curvature="0" /></g></g></g></g><g
           id="g144"><g
             id="g146"
             clip-path="url(#clipPath150)"><g
               id="g152"
               transform="translate(415.3276,303.4904)"><path
                 d="m 0,0 -0.176,-5.506 1.334,-0.12 0.531,5.508 z"
                 style="fill:#28306d;fill-opacity:1;fill-rule:nonzero;stroke:none"
                 id="path154"
                 inkscape:connector-curvature="0" /></g></g></g><g
           id="g156"><g
             id="g158"
             clip-path="url(#clipPath162)"><g
               id="g164"><g
                 id="g166"><path
                   d="m 405.607,367.025 c -1.286,-1.286 -1.286,-3.368 0,-4.654 v 0 c 1.285,-1.285 3.367,-1.285 4.653,0 v 0 c 1.285,1.286 1.285,3.368 0,4.654 v 0 c -0.643,0.642 -1.485,0.963 -2.327,0.963 v 0 c -0.842,0 -1.684,-0.321 -2.326,-0.963"
                   style="fill:url(#linearGradient174);stroke:none"
                   id="path176"
                   inkscape:connector-curvature="0" /></g></g></g></g><g
           id="g178"><g
             id="g180"
             clip-path="url(#clipPath184)"><g
               id="g186"
               transform="translate(420.2837,395.3801)"><path
                 d="m 0,0 c -0.077,-2.138 -0.08,-4.255 0.062,-6.324 0.085,-1.252 0.256,-2.491 0.495,-3.565 0.272,-1.224 0.785,-1.251 1.224,-0.097 0.341,0.893 0.657,1.948 0.86,3.04 0.796,4.28 1.251,8.595 1.361,12.924 0.057,2.217 0.023,4.438 -0.103,6.659 -0.005,0.081 -0.009,0.162 -0.014,0.243 -0.065,1.098 -0.275,2.15 -0.51,3.061 -0.242,0.944 -0.644,0.969 -1.03,0.196 -0.784,-1.574 -1.107,-3.74 -1.444,-5.89 0,0 -0.427,-3.122 -0.648,-5.756 m 0,0 C 0.229,4.204 0.208,3.923 0.189,3.653 0.111,2.432 0.044,1.212 0,0 m -1.475,5.268 c 0.366,3.973 0.598,5.464 0.598,5.464 0.436,3.328 1.028,6.498 1.978,9.28 0.095,0.279 0.192,0.554 0.296,0.812 1.268,3.148 2.594,3.121 3.464,-0.146 0.63,-2.367 0.863,-5.123 0.957,-8.004 C 5.84,11.966 5.855,11.251 5.866,10.533 5.886,9.027 5.856,7.521 5.79,6.015 5.667,3.215 5.424,0.415 5.17,-2.383 4.4,-10.871 3.632,-19.359 2.841,-27.841 1.955,-37.349 1.045,-46.852 0.142,-56.356 c -0.777,-8.174 -1.555,-16.348 -2.338,-24.519 -0.352,-3.672 -0.705,-7.343 -1.059,-11.014 -0.172,-1.778 -0.343,-3.555 -0.515,-5.333 -0.354,-3.671 -0.708,-7.343 -1.061,-11.015 -0.263,-2.738 -0.52,-5.477 -0.779,-8.217 -0.097,0.007 -0.059,0.004 -0.156,0.011 0.223,6.579 0.437,13.024 0.645,19.377 0.062,1.91 1.956,61.728 2.96,91.6 0.071,2.103 0.179,4.211 0.325,6.316 m 0,0 c 0.068,0.983 0.145,1.967 0.23,2.948 0.045,0.524 0.089,1.014 0.131,1.47"
                 style="fill:#28306d;fill-opacity:1;fill-rule:nonzero;stroke:none"
                 id="path188"
                 inkscape:connector-curvature="0" /></g><g
               id="g190"
               transform="translate(418.6636,400.2756)"><path
                 d="M 0,0 2.325,-1.908 1.82,-4.326 -1.294,-1.908 Z"
                 style="fill:#1f75a8;fill-opacity:1;fill-rule:nonzero;stroke:none"
                 id="path192"
                 inkscape:connector-curvature="0" /></g><g
               id="g194"
               transform="translate(267.0991,261.3923)"><path
                 d="M 0,0 H 52.919 V -5.64 H 29.796 V -64.668 H 23.123 V -5.64 H 0 Z"
                 style="fill:#28306d;fill-opacity:1;fill-rule:nonzero;stroke:none"
                 id="path196"
                 inkscape:connector-curvature="0" /></g><g
               id="g198"
               transform="translate(349.7866,250.8405)"><path
                 d="M 0,0 -11.545,-31.289 H 11.811 L 0.353,0 Z m -3.349,6.522 h 7.316 l 22.827,-60.638 h -6.523 l -6.433,17.451 h -27.323 l -6.434,-17.451 h -6.258 z"
                 style="fill:#39beed;fill-opacity:1;fill-rule:nonzero;stroke:none"
                 id="path200"
                 inkscape:connector-curvature="0" /></g><g
               id="g202"
               transform="translate(341.0513,223.4685)"><path
                 d="M 0,0 H 17.743 L 8.905,24.134 Z M 23.349,-4.917 H -5.621 L 7.37,31.29 h 3.087 z m 7.023,-17.91 h 2.327 L 11.346,33.895 H 6.742 l -21.353,-56.722 h 2.062 l 6.434,17.452 h 30.053 z m 7.988,-3.917 H 27.642 L 21.208,-9.293 H -3.384 L -9.818,-26.744 H -20.272 L 4.031,37.812 h 10.027 z"
                 style="fill:#39beed;fill-opacity:1;fill-rule:nonzero;stroke:none"
                 id="path204"
                 inkscape:connector-curvature="0" /></g><path
               d="m 385.925,258.363 h 6.258 v -60.639 h -6.258 z"
               style="fill:#39beed;fill-opacity:1;fill-rule:nonzero;stroke:none"
               id="path206"
               inkscape:connector-curvature="0" /><path
               d="m 387.883,200.641 h 2.341 v 56.722 h -2.341 z m 6.259,-3.917 h -10.176 v 64.556 h 10.176 z"
               style="fill:#39beed;fill-opacity:1;fill-rule:nonzero;stroke:none"
               id="path208"
               inkscape:connector-curvature="0" /><g
               id="g210"
               transform="translate(408.8843,261.3923)"><path
                 d="m 0,0 h 6.674 v -58.841 h 32.993 v -5.827 H 0 Z"
                 style="fill:#28306d;fill-opacity:1;fill-rule:nonzero;stroke:none"
                 id="path212"
                 inkscape:connector-curvature="0" /></g><g
               id="g214"
               transform="translate(482.9551,201.7995)"><path
                 d="M 0,0 C 14.287,0 24.062,11.656 24.062,27.259 24.062,42.861 14.287,54.518 0,54.518 -14.381,54.518 -24.062,42.861 -24.062,27.259 -24.062,11.656 -14.381,0 0,0 m 0,60.627 c 18.141,0 31.019,-14.193 31.019,-33.368 C 31.019,8.084 18.141,-6.109 0,-6.109 c -18.517,0 -31.018,14.193 -31.018,33.368 0,19.175 12.501,33.368 31.018,33.368"
                 style="fill:#28306d;fill-opacity:1;fill-rule:nonzero;stroke:none"
                 id="path216"
                 inkscape:connector-curvature="0" /></g><g
               id="g218"
               transform="translate(533.6211,255.5652)"><path
                 d="m 0,0 v -26.601 h 17.859 c 9.776,0 14.757,5.921 14.757,13.818 C 32.616,-4.889 27.447,0 17.859,0 Z m -6.673,5.827 h 24.25 c 14.194,0 21.713,-6.861 21.713,-18.61 0,-9.87 -5.264,-17.014 -15.228,-19.081 L 41.17,-58.841 H 33.933 L 16.92,-32.429 H 0 v -26.412 h -6.673 z"
                 style="fill:#28306d;fill-opacity:1;fill-rule:nonzero;stroke:none"
                 id="path220"
                 inkscape:connector-curvature="0" /></g></g></g></g><g
         transform="matrix(0.75000002,0,0,-0.75000002,0,595.28002)"
         style="font-style:normal;font-variant:normal;font-weight:normal;font-stretch:normal;font-size:13.33333302px;font-family:'Myriad Pro';-inkscape-font-specification:'Myriad Pro';letter-spacing:0px;word-spacing:0px;fill:#000000;fill-opacity:1;stroke:none"
         id="flowRoot222" /><g
         aria-label="Foundations of Trustworthy AI"
         transform="matrix(1,0,0,-1,0,-75)"
         style="font-style:normal;font-weight:normal;font-size:40px;font-family:sans-serif;letter-spacing:0px;word-spacing:0px;fill:#000000;fill-opacity:1;stroke:none;stroke-width:0.75"
         id="text1041"><path
           d="m 183.12228,-548.60855 h 26.8125 v 5.3125 h -20.5 v 13.75 h 18.5 v 5.3125 h -18.5 v 22.28125 h -6.3125 z"
           style="fill:#28306c;fill-opacity:1;stroke-width:0.75"
           id="path1218"
           inkscape:connector-curvature="0" /><path
           d="m 230.96603,-532.92105 q -4.625,0 -7.3125,3.625 -2.6875,3.59375 -2.6875,9.875 0,6.28125 2.65625,9.90625 2.6875,3.59375 7.34375,3.59375 4.59375,0 7.28125,-3.625 2.6875,-3.625 2.6875,-9.875 0,-6.21875 -2.6875,-9.84375 -2.6875,-3.65625 -7.28125,-3.65625 z m 0,-4.875 q 7.5,0 11.78125,4.875 4.28125,4.875 4.28125,13.5 0,8.59375 -4.28125,13.5 -4.28125,4.875 -11.78125,4.875 -7.53125,0 -11.8125,-4.875 -4.25,-4.90625 -4.25,-13.5 0,-8.625 4.25,-13.5 4.28125,-4.875 11.8125,-4.875 z"
           style="fill:#28306c;fill-opacity:1;stroke-width:0.75"
           id="path1220"
           inkscape:connector-curvature="0" /><path
           d="m 255.96603,-515.7648 v -21.1875 h 5.75 v 20.96875 q 0,4.96875 1.9375,7.46875 1.9375,2.46875 5.8125,2.46875 4.65625,0 7.34375,-2.96875 2.71875,-2.96875 2.71875,-8.09375 v -19.84375 h 5.75 v 35 h -5.75 v -5.375 q -2.09375,3.1875 -4.875,4.75 -2.75,1.53125 -6.40625,1.53125 -6.03125,0 -9.15625,-3.75 -3.125,-3.75 -3.125,-10.96875 z m 14.46875,-22.03125 z"
           style="fill:#28306c;fill-opacity:1;stroke-width:0.75"
           id="path1222"
           inkscape:connector-curvature="0" /><path
           d="m 326.21603,-523.0773 v 21.125 h -5.75 v -20.9375 q 0,-4.96875 -1.9375,-7.4375 -1.9375,-2.46875 -5.8125,-2.46875 -4.65625,0 -7.34375,2.96875 -2.6875,2.96875 -2.6875,8.09375 v 19.78125 h -5.78125 v -35 h 5.78125 v 5.4375 q 2.0625,-3.15625 4.84375,-4.71875 2.8125,-1.5625 6.46875,-1.5625 6.03125,0 9.125,3.75 3.09375,3.71875 3.09375,10.96875 z"
           style="fill:#28306c;fill-opacity:1;stroke-width:0.75"
           id="path1224"
           inkscape:connector-curvature="0" /><path
           d="m 360.71603,-531.6398 v -18.9375 h 5.75 v 48.625 h -5.75 v -5.25 q -1.8125,3.125 -4.59375,4.65625 -2.75,1.5 -6.625,1.5 -6.34375,0 -10.34375,-5.0625 -3.96875,-5.0625 -3.96875,-13.3125 0,-8.25 3.96875,-13.3125 4,-5.0625 10.34375,-5.0625 3.875,0 6.625,1.53125 2.78125,1.5 4.59375,4.625 z m -19.59375,12.21875 q 0,6.34375 2.59375,9.96875 2.625,3.59375 7.1875,3.59375 4.5625,0 7.1875,-3.59375 2.625,-3.625 2.625,-9.96875 0,-6.34375 -2.625,-9.9375 -2.625,-3.625 -7.1875,-3.625 -4.5625,0 -7.1875,3.625 -2.59375,3.59375 -2.59375,9.9375 z"
           style="fill:#28306c;fill-opacity:1;stroke-width:0.75"
           id="path1226"
           inkscape:connector-curvature="0" /><path
           d="m 394.21603,-519.54605 q -6.96875,0 -9.65625,1.59375 -2.6875,1.59375 -2.6875,5.4375 0,3.0625 2,4.875 2.03125,1.78125 5.5,1.78125 4.78125,0 7.65625,-3.375 2.90625,-3.40625 2.90625,-9.03125 v -1.28125 z m 11.46875,-2.375 v 19.96875 h -5.75 v -5.3125 q -1.96875,3.1875 -4.90625,4.71875 -2.9375,1.5 -7.1875,1.5 -5.375,0 -8.5625,-3 -3.15625,-3.03125 -3.15625,-8.09375 0,-5.90625 3.9375,-8.90625 3.96875,-3 11.8125,-3 h 8.0625 v -0.5625 q 0,-3.96875 -2.625,-6.125 -2.59375,-2.1875 -7.3125,-2.1875 -3,0 -5.84375,0.71875 -2.84375,0.71875 -5.46875,2.15625 v -5.3125 q 3.15625,-1.21875 6.125,-1.8125 2.96875,-0.625 5.78125,-0.625 7.59375,0 11.34375,3.9375 3.75,3.9375 3.75,11.9375 z"
           style="fill:#28306c;fill-opacity:1;stroke-width:0.75"
           id="path1228"
           inkscape:connector-curvature="0" /><path
           d="m 423.21603,-546.8898 v 9.9375 h 11.84375 v 4.46875 h -11.84375 v 19 q 0,4.28125 1.15625,5.5 1.1875,1.21875 4.78125,1.21875 h 5.90625 v 4.8125 h -5.90625 q -6.65625,0 -9.1875,-2.46875 -2.53125,-2.5 -2.53125,-9.0625 v -19 h -4.21875 v -4.46875 h 4.21875 v -9.9375 z"
           style="fill:#28306c;fill-opacity:1;stroke-width:0.75"
           id="path1230"
           inkscape:connector-curvature="0" /><path
           d="m 442.62228,-536.9523 h 5.75 v 35 h -5.75 z m 0,-13.625 h 5.75 v 7.28125 h -5.75 z"
           style="fill:#28306c;fill-opacity:1;stroke-width:0.75"
           id="path1232"
           inkscape:connector-curvature="0" /><path
           d="m 473.96603,-532.92105 q -4.625,0 -7.3125,3.625 -2.6875,3.59375 -2.6875,9.875 0,6.28125 2.65625,9.90625 2.6875,3.59375 7.34375,3.59375 4.59375,0 7.28125,-3.625 2.6875,-3.625 2.6875,-9.875 0,-6.21875 -2.6875,-9.84375 -2.6875,-3.65625 -7.28125,-3.65625 z m 0,-4.875 q 7.5,0 11.78125,4.875 4.28125,4.875 4.28125,13.5 0,8.59375 -4.28125,13.5 -4.28125,4.875 -11.78125,4.875 -7.53125,0 -11.8125,-4.875 -4.25,-4.90625 -4.25,-13.5 0,-8.625 4.25,-13.5 4.28125,-4.875 11.8125,-4.875 z"
           style="fill:#28306c;fill-opacity:1;stroke-width:0.75"
           id="path1234"
           inkscape:connector-curvature="0" /><path
           d="m 528.65353,-523.0773 v 21.125 h -5.75 v -20.9375 q 0,-4.96875 -1.9375,-7.4375 -1.9375,-2.46875 -5.8125,-2.46875 -4.65625,0 -7.34375,2.96875 -2.6875,2.96875 -2.6875,8.09375 v 19.78125 h -5.78125 v -35 h 5.78125 v 5.4375 q 2.0625,-3.15625 4.84375,-4.71875 2.8125,-1.5625 6.46875,-1.5625 6.03125,0 9.125,3.75 3.09375,3.71875 3.09375,10.96875 z"
           style="fill:#28306c;fill-opacity:1;stroke-width:0.75"
           id="path1236"
           inkscape:connector-curvature="0" /><path
           d="m 562.43478,-535.92105 v 5.4375 q -2.4375,-1.25 -5.0625,-1.875 -2.625,-0.625 -5.4375,-0.625 -4.28125,0 -6.4375,1.3125 -2.125,1.3125 -2.125,3.9375 0,2 1.53125,3.15625 1.53125,1.125 6.15625,2.15625 l 1.96875,0.4375 q 6.125,1.3125 8.6875,3.71875 2.59375,2.375 2.59375,6.65625 0,4.875 -3.875,7.71875 -3.84375,2.84375 -10.59375,2.84375 -2.8125,0 -5.875,-0.5625 -3.03125,-0.53125 -6.40625,-1.625 v -5.9375 q 3.1875,1.65625 6.28125,2.5 3.09375,0.8125 6.125,0.8125 4.0625,0 6.25,-1.375 2.1875,-1.40625 2.1875,-3.9375 0,-2.34375 -1.59375,-3.59375 -1.5625,-1.25 -6.90625,-2.40625 l -2,-0.46875 q -5.34375,-1.125 -7.71875,-3.4375 -2.375,-2.34375 -2.375,-6.40625 0,-4.9375 3.5,-7.625 3.5,-2.6875 9.9375,-2.6875 3.1875,0 6,0.46875 2.8125,0.46875 5.1875,1.40625 z"
           style="fill:#28306c;fill-opacity:1;stroke-width:0.75"
           id="path1238"
           inkscape:connector-curvature="0" /><path
           d="m 607.37228,-532.92105 q -4.625,0 -7.3125,3.625 -2.6875,3.59375 -2.6875,9.875 0,6.28125 2.65625,9.90625 2.6875,3.59375 7.34375,3.59375 4.59375,0 7.28125,-3.625 2.6875,-3.625 2.6875,-9.875 0,-6.21875 -2.6875,-9.84375 -2.6875,-3.65625 -7.28125,-3.65625 z m 0,-4.875 q 7.5,0 11.78125,4.875 4.28125,4.875 4.28125,13.5 0,8.59375 -4.28125,13.5 -4.28125,4.875 -11.78125,4.875 -7.53125,0 -11.8125,-4.875 -4.25,-4.90625 -4.25,-13.5 0,-8.625 4.25,-13.5 4.28125,-4.875 11.8125,-4.875 z"
           style="fill:#28306c;fill-opacity:1;stroke-width:0.75"
           id="path1240"
           inkscape:connector-curvature="0" /><path
           d="m 650.68478,-550.5773 v 4.78125 h -5.5 q -3.09375,0 -4.3125,1.25 -1.1875,1.25 -1.1875,4.5 v 3.09375 h 9.46875 v 4.46875 h -9.46875 v 30.53125 h -5.78125 v -30.53125 h -5.5 v -4.46875 h 5.5 v -2.4375 q 0,-5.84375 2.71875,-8.5 2.71875,-2.6875 8.625,-2.6875 z"
           style="fill:#28306c;fill-opacity:1;stroke-width:0.75"
           id="path1242"
           inkscape:connector-curvature="0" /><path
           d="m 176.65353,-468.60855 h 39.46875 v 5.3125 h -16.5625 v 41.34375 h -6.34375 v -41.34375 h -16.5625 z"
           style="fill:#28306c;fill-opacity:1;stroke-width:0.75"
           id="path1244"
           inkscape:connector-curvature="0" /><path
           d="m 232.84103,-451.5773 q -0.96875,-0.5625 -2.125,-0.8125 -1.125,-0.28125 -2.5,-0.28125 -4.875,0 -7.5,3.1875 -2.59375,3.15625 -2.59375,9.09375 v 18.4375 h -5.78125 v -35 h 5.78125 v 5.4375 q 1.8125,-3.1875 4.71875,-4.71875 2.90625,-1.5625 7.0625,-1.5625 0.59375,0 1.3125,0.0937 0.71875,0.0625 1.59375,0.21875 z"
           style="fill:#28306c;fill-opacity:1;stroke-width:0.75"
           id="path1246"
           inkscape:connector-curvature="0" /><path
           d="m 238.27853,-435.7648 v -21.1875 h 5.75 v 20.96875 q 0,4.96875 1.9375,7.46875 1.9375,2.46875 5.8125,2.46875 4.65625,0 7.34375,-2.96875 2.71875,-2.96875 2.71875,-8.09375 v -19.84375 h 5.75 v 35 h -5.75 v -5.375 q -2.09375,3.1875 -4.875,4.75 -2.75,1.53125 -6.40625,1.53125 -6.03125,0 -9.15625,-3.75 -3.125,-3.75 -3.125,-10.96875 z m 14.46875,-22.03125 z"
           style="fill:#28306c;fill-opacity:1;stroke-width:0.75"
           id="path1248"
           inkscape:connector-curvature="0" /><path
           d="m 301.74728,-455.92105 v 5.4375 q -2.4375,-1.25 -5.0625,-1.875 -2.625,-0.625 -5.4375,-0.625 -4.28125,0 -6.4375,1.3125 -2.125,1.3125 -2.125,3.9375 0,2 1.53125,3.15625 1.53125,1.125 6.15625,2.15625 l 1.96875,0.4375 q 6.125,1.3125 8.6875,3.71875 2.59375,2.375 2.59375,6.65625 0,4.875 -3.875,7.71875 -3.84375,2.84375 -10.59375,2.84375 -2.8125,0 -5.875,-0.5625 -3.03125,-0.53125 -6.40625,-1.625 v -5.9375 q 3.1875,1.65625 6.28125,2.5 3.09375,0.8125 6.125,0.8125 4.0625,0 6.25,-1.375 2.1875,-1.40625 2.1875,-3.9375 0,-2.34375 -1.59375,-3.59375 -1.5625,-1.25 -6.90625,-2.40625 l -2,-0.46875 q -5.34375,-1.125 -7.71875,-3.4375 -2.375,-2.34375 -2.375,-6.40625 0,-4.9375 3.5,-7.625 3.5,-2.6875 9.9375,-2.6875 3.1875,0 6,0.46875 2.8125,0.46875 5.1875,1.40625 z"
           style="fill:#28306c;fill-opacity:1;stroke-width:0.75"
           id="path1250"
           inkscape:connector-curvature="0" /><path
           d="m 318.46603,-466.8898 v 9.9375 h 11.84375 v 4.46875 h -11.84375 v 19 q 0,4.28125 1.15625,5.5 1.1875,1.21875 4.78125,1.21875 h 5.90625 v 4.8125 h -5.90625 q -6.65625,0 -9.1875,-2.46875 -2.53125,-2.5 -2.53125,-9.0625 v -19 h -4.21875 v -4.46875 h 4.21875 v -9.9375 z"
           style="fill:#28306c;fill-opacity:1;stroke-width:0.75"
           id="path1252"
           inkscape:connector-curvature="0" /><path
           d="m 334.52853,-456.9523 h 5.75 l 7.1875,27.3125 7.15625,-27.3125 h 6.78125 l 7.1875,27.3125 7.15625,-27.3125 h 5.75 l -9.15625,35 h -6.78125 l -7.53125,-28.6875 -7.5625,28.6875 h -6.78125 z"
           style="fill:#28306c;fill-opacity:1;stroke-width:0.75"
           id="path1254"
           inkscape:connector-curvature="0" /><path
           d="m 403.77853,-452.92105 q -4.625,0 -7.3125,3.625 -2.6875,3.59375 -2.6875,9.875 0,6.28125 2.65625,9.90625 2.6875,3.59375 7.34375,3.59375 4.59375,0 7.28125,-3.625 2.6875,-3.625 2.6875,-9.875 0,-6.21875 -2.6875,-9.84375 -2.6875,-3.65625 -7.28125,-3.65625 z m 0,-4.875 q 7.5,0 11.78125,4.875 4.28125,4.875 4.28125,13.5 0,8.59375 -4.28125,13.5 -4.28125,4.875 -11.78125,4.875 -7.53125,0 -11.8125,-4.875 -4.25,-4.90625 -4.25,-13.5 0,-8.625 4.25,-13.5 4.28125,-4.875 11.8125,-4.875 z"
           style="fill:#28306c;fill-opacity:1;stroke-width:0.75"
           id="path1256"
           inkscape:connector-curvature="0" /><path
           d="m 449.65353,-451.5773 q -0.96875,-0.5625 -2.125,-0.8125 -1.125,-0.28125 -2.5,-0.28125 -4.875,0 -7.5,3.1875 -2.59375,3.15625 -2.59375,9.09375 v 18.4375 h -5.78125 v -35 h 5.78125 v 5.4375 q 1.8125,-3.1875 4.71875,-4.71875 2.90625,-1.5625 7.0625,-1.5625 0.59375,0 1.3125,0.0937 0.71875,0.0625 1.59375,0.21875 z"
           style="fill:#28306c;fill-opacity:1;stroke-width:0.75"
           id="path1258"
           inkscape:connector-curvature="0" /><path
           d="m 461.37228,-466.8898 v 9.9375 h 11.84375 v 4.46875 h -11.84375 v 19 q 0,4.28125 1.15625,5.5 1.1875,1.21875 4.78125,1.21875 h 5.90625 v 4.8125 h -5.90625 q -6.65625,0 -9.1875,-2.46875 -2.53125,-2.5 -2.53125,-9.0625 v -19 h -4.21875 v -4.46875 h 4.21875 v -9.9375 z"
           style="fill:#28306c;fill-opacity:1;stroke-width:0.75"
           id="path1260"
           inkscape:connector-curvature="0" /><path
           d="m 509.87228,-443.0773 v 21.125 h -5.75 v -20.9375 q 0,-4.96875 -1.9375,-7.4375 -1.9375,-2.46875 -5.8125,-2.46875 -4.65625,0 -7.34375,2.96875 -2.6875,2.96875 -2.6875,8.09375 v 19.78125 h -5.78125 v -48.625 h 5.78125 v 19.0625 q 2.0625,-3.15625 4.84375,-4.71875 2.8125,-1.5625 6.46875,-1.5625 6.03125,0 9.125,3.75 3.09375,3.71875 3.09375,10.96875 z"
           style="fill:#28306c;fill-opacity:1;stroke-width:0.75"
           id="path1262"
           inkscape:connector-curvature="0" /><path
           d="m 535.90353,-418.7023 q -2.4375,6.25 -4.75,8.15625 -2.3125,1.90625 -6.1875,1.90625 h -4.59375 v -4.8125 h 3.375 q 2.375,0 3.6875,-1.125 1.3125,-1.125 2.90625,-5.3125 l 1.03125,-2.625 -14.15625,-34.4375 h 6.09375 l 10.9375,27.375 10.9375,-27.375 h 6.09375 z"
           style="fill:#28306c;fill-opacity:1;stroke-width:0.75"
           id="path1264"
           inkscape:connector-curvature="0" /><path
           d="m 595.40353,-462.3898 -8.5625,23.21875 h 17.15625 z m -3.5625,-6.21875 h 7.15625 l 17.78125,46.65625 h -6.5625 l -4.25,-11.96875 h -21.03125 l -4.25,11.96875 h -6.65625 z"
           style="fill:#37beed;fill-opacity:1"
           id="path1266"
           inkscape:connector-curvature="0" /><path
           d="m 623.59103,-468.60855 h 6.3125 v 46.65625 h -6.3125 z"
           style="fill:#37beed;fill-opacity:1"
           id="path1268"
           inkscape:connector-curvature="0" /></g></g></g></svg>