<?xml version="1.0" encoding="UTF-8" standalone="no"?>
<!-- Created with Inkscape (http://www.inkscape.org/) -->

<svg
   xmlns:dc="http://purl.org/dc/elements/1.1/"
   xmlns:cc="http://creativecommons.org/ns#"
   xmlns:rdf="http://www.w3.org/1999/02/22-rdf-syntax-ns#"
   xmlns:svg="http://www.w3.org/2000/svg"
   xmlns="http://www.w3.org/2000/svg"
   xmlns:sodipodi="http://sodipodi.sourceforge.net/DTD/sodipodi-0.dtd"
   xmlns:inkscape="http://www.inkscape.org/namespaces/inkscape"
   width="184.6463mm"
   height="55.678219mm"
   viewBox="0 0 184.6463 55.678219"
   version="1.1"
   id="svg8"
   inkscape:version="0.92.5 (2060ec1f9f, 2020-04-08)"
   sodipodi:docname="deployment.svg">
  <defs
     id="defs2" />
  <sodipodi:namedview
     id="base"
     pagecolor="#ffffff"
     bordercolor="#666666"
     borderopacity="1.0"
     inkscape:pageopacity="0.0"
     inkscape:pageshadow="2"
     inkscape:zoom="1.4"
     inkscape:cx="378.50616"
     inkscape:cy="38.030498"
     inkscape:document-units="mm"
     inkscape:current-layer="layer1"
     showgrid="false"
     fit-margin-top="0"
     fit-margin-left="0"
     fit-margin-right="0"
     fit-margin-bottom="0"
     inkscape:window-width="1676"
     inkscape:window-height="1007"
     inkscape:window-x="0"
     inkscape:window-y="20"
     inkscape:window-maximized="0" />
  <metadata
     id="metadata5">
    <rdf:RDF>
      <cc:Work
         rdf:about="">
        <dc:format>image/svg+xml</dc:format>
        <dc:type
           rdf:resource="http://purl.org/dc/dcmitype/StillImage" />
        <dc:title></dc:title>
      </cc:Work>
    </rdf:RDF>
  </metadata>
  <g
     inkscape:label="Layer 1"
     inkscape:groupmode="layer"
     id="layer1"
     transform="translate(-28.614416,-159.13556)">
    <g
       id="g1166">
      <g
         transform="translate(11.237796,-2.1655514)"
         id="g961">
        <path
           style="opacity:1;fill:#000000;fill-opacity:1;stroke:#000000;stroke-width:0.5;stroke-linecap:round;stroke-linejoin:miter;stroke-miterlimit:4;stroke-dasharray:none;stroke-dashoffset:0;stroke-opacity:1"
           id="path879"
           d="m 139.85932,181.40478 c 0.15324,0.30997 0.23596,0.64714 0.32081,0.98048 0.10465,0.49274 0.17404,0.9927 0.24088,1.49181 0.0735,0.60855 0.14361,1.21751 0.21828,1.82593 0.0719,0.68739 0.17205,1.37122 0.26146,2.05641 0.09,0.66042 0.19249,1.31914 0.3022,1.97655 0.0891,0.54632 0.19405,1.08997 0.31469,1.63015 0.0839,0.36273 0.15072,0.72902 0.20912,1.09662 0.0169,0.16592 0.0648,0.32978 0.0664,0.49707 0.002,0.0209 0.004,0.0418 0.007,0.0626 0,0 -1.24547,0.47882 -1.24547,0.47882 v 0 c 0.0135,0.0142 0.0271,0.0285 0.0406,0.0427 0.0698,-0.13025 -0.052,-0.32552 -0.0364,-0.46366 -0.0529,-0.3666 -0.11569,-0.73176 -0.19679,-1.09329 -0.11813,-0.54372 -0.2215,-1.09058 -0.31095,-1.63978 -0.10997,-0.65926 -0.20893,-1.32042 -0.30151,-1.98233 -0.0879,-0.68539 -0.19085,-1.36886 -0.26369,-2.05614 -0.0749,-0.60731 -0.14891,-1.21468 -0.22256,-1.82212 -0.066,-0.49362 -0.13716,-0.98772 -0.23938,-1.4752 -0.0822,-0.32072 -0.16025,-0.64789 -0.31545,-0.94273 0,0 1.15116,-0.66394 1.15116,-0.66394 z"
           inkscape:connector-curvature="0" />
        <path
           style="opacity:1;fill:#000000;fill-opacity:1;stroke:#000000;stroke-width:0.5;stroke-linecap:round;stroke-linejoin:miter;stroke-miterlimit:4;stroke-dasharray:none;stroke-dashoffset:0;stroke-opacity:1"
           id="path881"
           d="m 139.21139,184.15197 c 0.16097,-0.27594 0.35298,-0.53157 0.54992,-0.78243 0.22806,-0.30069 0.50326,-0.5569 0.81105,-0.77336 0.68355,-0.39276 1.3384,-0.90038 2.12879,-1.04253 0.39338,-0.0731 0.79111,-0.06 1.18495,-0.003 0.4476,0.0574 0.87721,0.19374 1.28964,0.3728 0.48555,0.20986 0.92339,0.50708 1.34063,0.82858 0.43342,0.32978 0.80999,0.72246 1.16762,1.13101 0.35546,0.43266 0.61413,0.93111 0.84432,1.43848 0.24387,0.55363 0.41558,1.13348 0.5519,1.72166 0.1335,0.60142 0.19974,1.2136 0.22622,1.82816 0.0224,0.58061 -0.0699,1.14786 -0.25962,1.69462 -0.20808,0.56063 -0.60827,0.9788 -1.05621,1.35661 -0.83324,0.62206 -1.7522,1.12603 -2.7131,1.51991 -0.44757,0.18271 -0.91086,0.32017 -1.38161,0.42769 -0.15978,0.048 -0.32076,0.0589 -0.48591,0.058 0,0 1.06673,-0.7805 1.06673,-0.7805 v 0 c 0.1575,-0.0119 0.31274,-0.0329 0.46556,-0.0753 0.46391,-0.11265 0.92026,-0.25413 1.36106,-0.43876 0.1938,-0.0817 0.35109,-0.14487 0.54014,-0.23767 0.0906,-0.0445 0.35449,-0.19289 0.26824,-0.14046 -1.70681,1.03755 -0.68677,0.40409 -0.33239,0.15513 0.4473,-0.35834 0.86083,-0.74925 1.0823,-1.29171 0.20034,-0.52964 0.30008,-1.08144 0.28339,-1.64991 -0.022,-0.60748 -0.0831,-1.21246 -0.21381,-1.80722 -0.13214,-0.58029 -0.30119,-1.15191 -0.54208,-1.69742 -0.22371,-0.49635 -0.4767,-0.98299 -0.82564,-1.4046 -0.35325,-0.40151 -0.72556,-0.7862 -1.15422,-1.10879 -0.41248,-0.31226 -0.84419,-0.6011 -1.32487,-0.79905 -0.40882,-0.16603 -0.83169,-0.29237 -1.27184,-0.34184 -0.38792,-0.0427 -0.77794,-0.0438 -1.1614,0.0399 -0.15644,0.0369 -0.19245,0.0397 -0.34132,0.0971 -0.45834,0.1765 -1.38926,0.78686 0.48966,-0.33083 -0.31458,0.1983 -0.5972,0.44024 -0.82629,0.73524 -0.19578,0.24331 -0.38848,0.49046 -0.54804,0.75961 0,0 -1.21377,0.54105 -1.21377,0.54105 z"
           inkscape:connector-curvature="0" />
        <path
           style="opacity:1;fill:#000000;fill-opacity:1;stroke:#000000;stroke-width:0.5;stroke-linecap:round;stroke-linejoin:miter;stroke-miterlimit:4;stroke-dasharray:none;stroke-dashoffset:0;stroke-opacity:1"
           id="path883"
           d="m 151.08295,191.83978 c 0.27533,-0.012 0.53653,-0.0869 0.79249,-0.18419 0.40795,-0.22205 1.07995,-0.60019 -0.77865,0.45062 -0.17461,0.0987 0.19864,-0.13614 0.29647,-0.21906 0.13875,-0.12116 0.24532,-0.26861 0.32276,-0.43472 0.0557,-0.13321 0.0374,-0.25892 -0.0156,-0.38787 -0.0715,-0.13351 -0.20162,-0.15183 -0.34021,-0.1402 -0.139,0.005 -0.26913,0.0512 -0.38795,0.12187 -0.0334,0.0199 -0.13168,0.0828 -0.0979,0.0636 0.34393,-0.19571 0.68558,-0.39539 1.02837,-0.59308 -0.2163,0.12264 -0.39282,0.29521 -0.54579,0.48887 -0.15777,0.22206 -0.22598,0.47679 -0.24362,0.74476 -0.0169,0.29722 0.0679,0.56983 0.2053,0.82892 0.13972,0.23862 0.34588,0.38865 0.61616,0.43757 0.33337,0.0193 0.64456,-0.1064 0.9413,-0.24338 0.0565,-0.0318 0.11308,-0.0637 0.16962,-0.0955 0,0 -1.02601,0.82475 -1.02601,0.82475 v 0 c -0.059,0.0295 -0.11807,0.0589 -0.17711,0.0884 -0.31779,0.12971 -0.64878,0.24147 -0.99616,0.1766 -0.2912,-0.0903 -0.52123,-0.2637 -0.67436,-0.53179 -0.14781,-0.27738 -0.24724,-0.57085 -0.23857,-0.88967 0.002,-0.28865 0.0634,-0.56264 0.20873,-0.81531 0.14194,-0.20999 0.31331,-0.39648 0.52467,-0.53897 0.42932,-0.2482 1.13712,-0.84468 1.77013,-0.8437 0.18221,0.0257 0.33434,0.0956 0.42286,0.26636 0.0665,0.15617 0.10374,0.31124 0.0611,0.48077 -0.0642,0.18557 -0.16419,0.35008 -0.30113,0.49209 -0.51138,0.4761 -1.14912,0.80214 -1.78686,1.08061 -0.26813,0.0867 -0.54159,0.15128 -0.82526,0.15283 0,0 1.07516,-0.78114 1.07516,-0.78114 z"
           inkscape:connector-curvature="0" />
        <path
           style="opacity:1;fill:#000000;fill-opacity:1;stroke:#000000;stroke-width:0.5;stroke-linecap:round;stroke-linejoin:miter;stroke-miterlimit:4;stroke-dasharray:none;stroke-dashoffset:0;stroke-opacity:1"
           id="path885"
           d="m 156.67705,190.67425 c -0.008,0.45106 -0.008,0.90225 -0.01,1.35337 -0.002,0.68042 -0.002,1.36084 -0.003,2.04126 0.009,0.63182 -0.001,1.26275 -0.0309,1.89382 -0.007,0.3824 -0.0495,0.76164 -0.10303,1.13985 -0.0225,0.15233 -0.009,0.0785 -0.0391,0.2216 0,0 -1.19597,0.57251 -1.19597,0.57251 v 0 c 0.04,-0.13214 0.0232,-0.0618 0.048,-0.2115 0.0601,-0.37604 0.11113,-0.75307 0.12099,-1.1344 0.0351,-0.63017 0.052,-1.26026 0.0414,-1.89154 -2.6e-4,-0.67949 -2.6e-4,-1.35897 -0.003,-2.03846 -0.002,-0.44786 -0.002,-0.89579 -0.01,-1.34359 0,0 1.1833,-0.60292 1.1833,-0.60292 z"
           inkscape:connector-curvature="0" />
        <path
           style="opacity:1;fill:#000000;fill-opacity:1;stroke:#000000;stroke-width:0.5;stroke-linecap:round;stroke-linejoin:miter;stroke-miterlimit:4;stroke-dasharray:none;stroke-dashoffset:0;stroke-opacity:1"
           id="path887"
           d="m 156.69069,192.7595 c 0.28115,-0.0563 0.56119,-0.11324 0.83527,-0.19854 0.29672,-0.082 0.57879,-0.20203 0.85347,-0.33935 0.55478,-0.31508 -0.58609,0.34055 -0.88157,0.50653 -0.0408,0.0229 0.0787,-0.0506 0.11685,-0.0775 0.10417,-0.0735 0.19963,-0.15604 0.29362,-0.24179 0.14914,-0.14155 0.25017,-0.30178 0.27837,-0.50562 0.009,-0.17975 -0.0999,-0.3089 -0.22957,-0.41862 -0.16548,-0.14474 -0.36781,-0.22987 -0.5735,-0.29986 -0.19171,-0.0653 -0.38387,-0.0923 -0.58502,-0.0841 -0.122,0.0255 -0.0618,0.0118 -0.1806,0.0409 0,0 1.05812,-0.80075 1.05812,-0.80075 v 0 c 0.12681,-0.0194 0.0617,-0.0124 0.19535,-0.0201 0.20985,0.007 0.41334,0.0519 0.61096,0.123 0.21663,0.0839 0.4271,0.18435 0.60129,0.34165 0.15359,0.14303 0.27988,0.3084 0.29092,0.52633 -0.0121,0.23026 -0.0819,0.42116 -0.24299,0.59189 -0.49105,0.51669 -1.16568,0.80993 -1.78521,1.14224 -0.2795,0.13098 -0.56841,0.23936 -0.86628,0.32131 -0.28158,0.0767 -0.56684,0.13911 -0.8548,0.18686 0,0 1.06532,-0.79442 1.06532,-0.79442 z"
           inkscape:connector-curvature="0" />
        <path
           style="opacity:1;fill:#000000;fill-opacity:1;stroke:#000000;stroke-width:0.5;stroke-linecap:round;stroke-linejoin:miter;stroke-miterlimit:4;stroke-dasharray:none;stroke-dashoffset:0;stroke-opacity:1"
           id="path889"
           d="m 161.76084,181.43684 c 0.0395,0.45572 0.0829,0.91092 0.11416,1.36733 0.0514,0.85574 0.067,1.71309 0.0823,2.57007 0.0159,1.02075 0.0234,2.04161 0.0309,3.06244 0.007,0.82716 0.0115,1.65433 0.0174,2.48149 0.0106,0.34133 -0.006,0.68248 -0.0253,1.02313 0,0 -1.17594,0.58943 -1.17594,0.58943 v 0 c 0.0256,-0.33982 0.0494,-0.68029 0.0418,-1.02138 0.001,-0.82945 2.2e-4,-1.6589 -0.003,-2.48835 -0.005,-1.02015 -0.0122,-2.04031 -0.0314,-3.06031 -0.0176,-0.8525 -0.0365,-1.70541 -0.0939,-2.55636 -0.0344,-0.45091 -0.0802,-0.90049 -0.1335,-1.34951 0,0 1.17647,-0.61798 1.17647,-0.61798 z"
           inkscape:connector-curvature="0" />
        <path
           style="opacity:1;fill:#000000;fill-opacity:1;stroke:#000000;stroke-width:0.5;stroke-linecap:round;stroke-linejoin:miter;stroke-miterlimit:4;stroke-dasharray:none;stroke-dashoffset:0;stroke-opacity:1"
           id="path891"
           d="m 165.32343,190.03094 c -0.23657,0.19766 -0.43114,0.43593 -0.61243,0.68353 -0.17204,0.22939 -0.2665,0.48922 -0.30589,0.77061 -0.027,0.22853 0.0261,0.44763 0.13017,0.64998 0.10618,0.16509 0.26233,0.26994 0.44467,0.33298 0.24782,0.0526 0.47389,-0.0521 0.68846,-0.16435 0.52116,-0.31346 -0.34683,0.21019 -0.88135,0.49257 -0.0458,0.0242 0.0811,-0.0646 0.11956,-0.0993 0.12532,-0.11318 0.22791,-0.2398 0.32921,-0.37407 0.17758,-0.24735 0.30773,-0.51465 0.3883,-0.80731 0.0647,-0.21523 0.0634,-0.42414 8e-4,-0.63736 -0.0608,-0.18121 -0.20244,-0.27188 -0.36993,-0.34242 -0.19566,-0.074 -0.39752,-0.1015 -0.605,-0.0969 -0.0326,0.001 -0.0652,0.003 -0.0978,0.004 0,0 1.07122,-0.78201 1.07122,-0.78201 v 0 c 0.0333,-7e-5 0.0667,-1.4e-4 0.1,-2.1e-4 0.21935,0.01 0.43552,0.0554 0.63762,0.14307 0.1925,0.0985 0.35178,0.22719 0.42716,0.4377 0.0726,0.23324 0.0973,0.46373 0.0285,0.70344 -0.0733,0.30812 -0.19017,0.59019 -0.37027,0.85299 -0.43936,0.64408 -1.07476,1.01086 -1.81212,1.32911 -0.24463,0.10426 -0.49467,0.17419 -0.75545,0.0787 -0.20282,-0.0905 -0.37595,-0.22179 -0.49408,-0.4138 -0.11523,-0.22276 -0.18565,-0.4662 -0.16454,-0.71938 0.0242,-0.29901 0.10847,-0.5831 0.28002,-0.83259 0.175,-0.25525 0.3661,-0.49841 0.5926,-0.71049 0,0 1.23063,-0.49871 1.23063,-0.49871 z"
           inkscape:connector-curvature="0" />
        <path
           style="opacity:1;fill:#000000;fill-opacity:1;stroke:#000000;stroke-width:0.5;stroke-linecap:round;stroke-linejoin:miter;stroke-miterlimit:4;stroke-dasharray:none;stroke-dashoffset:0;stroke-opacity:1"
           id="path893"
           d="m 169.11598,189.18062 c 0.0578,0.313 0.15889,0.61373 0.26115,0.91416 0.10941,0.31615 0.2392,0.62451 0.35588,0.93787 0.0671,0.16802 0.1351,0.33555 0.1997,0.50455 0,0 -1.15741,0.64309 -1.15741,0.64309 v 0 c -0.0627,-0.17015 -0.12933,-0.33866 -0.19739,-0.50675 -0.115,-0.31522 -0.24389,-0.62523 -0.35464,-0.94211 -0.10406,-0.30281 -0.20747,-0.60533 -0.27607,-0.91876 0,0 1.16878,-0.63205 1.16878,-0.63205 z"
           inkscape:connector-curvature="0" />
        <path
           style="opacity:1;fill:#000000;fill-opacity:1;stroke:#000000;stroke-width:0.5;stroke-linecap:round;stroke-linejoin:miter;stroke-miterlimit:4;stroke-dasharray:none;stroke-dashoffset:0;stroke-opacity:1"
           id="path895"
           d="m 171.49389,190.41923 c -0.17206,0.43441 -0.33295,0.87288 -0.48668,1.31407 -0.29027,0.79399 -0.5696,1.5916 -0.84128,2.39212 -0.31851,0.96161 -0.62595,1.92699 -0.92801,2.89389 -0.2174,0.63933 -0.39366,1.29175 -0.60263,1.93363 -0.0222,0.0611 -0.0444,0.12215 -0.0666,0.18321 0,0 -1.19416,0.55437 -1.19416,0.55437 v 0 c 0.0243,-0.0601 0.0485,-0.12028 0.0728,-0.18042 0.22623,-0.64088 0.39875,-1.3 0.62533,-1.941 0.30482,-0.96727 0.61623,-1.93256 0.92892,-2.89731 0.26689,-0.79786 0.53834,-1.59392 0.82455,-2.38512 0.14836,-0.43797 0.30369,-0.87322 0.46326,-1.30718 0,0 1.20453,-0.56026 1.20453,-0.56026 z"
           inkscape:connector-curvature="0" />
        <path
           style="opacity:1;fill:#000000;fill-opacity:1;stroke:#000000;stroke-width:0.5;stroke-linecap:round;stroke-linejoin:miter;stroke-miterlimit:4;stroke-dasharray:none;stroke-dashoffset:0;stroke-opacity:1"
           id="path897"
           d="m 173.38706,189.05402 c 0.0333,0.33174 0.0537,0.66449 0.0711,0.99738 0.0188,0.3579 0.0266,0.71622 0.0357,1.07445 0.008,0.25123 -2.6e-4,0.50292 0.0326,0.75252 0.0184,0.10497 0.032,0.21228 0.066,0.31334 -0.24774,-0.45044 0.006,-0.0528 -1.14002,0.53029 -0.0248,0.0126 0.0268,-0.0487 0.039,-0.0737 0.0403,-0.0825 0.0745,-0.1681 0.11365,-0.25121 0.0975,-0.20064 0.19677,-0.40039 0.30539,-0.59526 0.097,-0.16501 0.20531,-0.32355 0.32556,-0.4725 0.37595,-0.38778 0.93567,-1.01693 1.46205,-0.76117 0.15255,0.10467 0.24409,0.267 0.31907,0.43159 0.0598,0.18317 0.13303,0.36135 0.19945,0.54209 0.0369,0.0731 0.0465,0.24073 0.14382,0.26418 0.54757,-0.44016 -1.38269,0.87661 -0.91408,0.47825 0.0914,-0.0859 0.17149,-0.18301 0.26199,-0.26956 0.38159,-0.31543 0.97708,-0.9248 1.4778,-0.73492 0.14266,0.0775 0.23023,0.20238 0.31535,0.33558 0.0984,0.13507 0.14438,0.30358 0.25598,0.4287 0.0145,0.0129 0.0267,0.029 0.0435,0.0386 0.0698,0.0399 0.25613,-0.12532 0.16953,-0.0771 -0.36196,0.20134 -0.718,0.41316 -1.07699,0.61973 0.15157,-0.0922 0.27538,-0.21996 0.42211,-0.31923 0.57783,-0.35152 1.06525,-0.8933 1.7105,-0.63918 0.21472,0.0838 0.3973,0.2273 0.56921,0.37759 0.0894,0.0791 0.1701,0.16699 0.26286,0.24211 0,0 -1.12716,0.70324 -1.12716,0.70324 v 0 c -0.089,-0.0791 -0.1706,-0.16565 -0.25991,-0.24444 -0.16385,-0.13726 -0.33551,-0.26794 -0.54195,-0.33378 -0.52938,-0.1373 -1.36116,0.57688 0.62547,-0.58152 -0.16143,0.0792 -0.28796,0.19776 -0.42169,0.31531 -0.18575,0.10767 -1.08408,1.03786 -1.51497,0.58225 -0.10651,-0.13629 -0.16774,-0.2985 -0.26253,-0.44259 -0.0654,-0.0992 -0.13381,-0.21648 -0.25968,-0.24231 -0.0693,0.008 -0.17435,0.0647 -0.13851,0.0438 1.83568,-1.06933 1.36147,-0.80282 0.9842,-0.57152 -0.10041,0.0766 -0.18094,0.17033 -0.26697,0.26192 -0.35995,0.40338 -0.0508,0.0685 -1.24904,0.77455 -0.0613,0.0361 -0.13375,0.008 -0.18685,-0.0269 -0.10086,-0.0898 -0.14733,-0.21131 -0.18337,-0.33931 -0.0634,-0.17833 -0.13732,-0.35277 -0.19315,-0.53379 -0.0559,-0.12469 -0.12468,-0.27833 -0.261,-0.33013 -0.027,0.002 -0.10209,0.0333 -0.0787,0.0198 1.92901,-1.11617 1.31907,-0.80678 0.93663,-0.53079 -0.12457,0.14227 -0.23499,0.29266 -0.33938,0.45039 -0.106,0.19358 -0.21158,0.38664 -0.3074,0.58566 -0.20552,0.45386 -0.82873,1.71966 -1.37871,1.0068 -0.0544,-0.10955 -0.0523,-0.23979 -0.08,-0.35688 -0.0364,-0.25526 -0.0315,-0.51136 -0.0343,-0.76888 -0.006,-0.35747 -0.0148,-0.71492 -0.0317,-1.07207 -0.0165,-0.32837 -0.0346,-0.65713 -0.077,-0.98338 0,0 1.17647,-0.61799 1.17647,-0.61799 z"
           inkscape:connector-curvature="0" />
        <path
           style="opacity:1;fill:#000000;fill-opacity:1;stroke:#000000;stroke-width:0.5;stroke-linecap:round;stroke-linejoin:miter;stroke-miterlimit:4;stroke-dasharray:none;stroke-dashoffset:0;stroke-opacity:1"
           id="path899"
           d="m 179.98635,190.82535 c 0.2017,-0.13699 0.38527,-0.29846 0.56055,-0.46737 0.11185,-0.11274 0.21736,-0.22853 0.27284,-0.37886 0.0278,-0.0864 0.0341,-0.14069 -0.0427,-0.19041 -0.38138,0.0484 -1.59755,0.85776 0.78274,-0.50118 -0.22971,0.13664 -0.36421,0.36292 -0.49034,0.5899 -0.1637,0.28406 -0.23272,0.59646 -0.2725,0.91781 -0.031,0.29803 0.0184,0.58819 0.10872,0.87123 0.083,0.21166 0.21827,0.38246 0.44773,0.42517 0.14701,0.0135 0.25928,-0.0336 0.39076,-0.0922 0,0 -1.04008,0.81007 -1.04008,0.81007 v 0 c -0.15389,0.0401 -0.28691,0.0743 -0.44462,0.0296 -0.24994,-0.0978 -0.41575,-0.28491 -0.51221,-0.5359 -0.0981,-0.29907 -0.15671,-0.60587 -0.13311,-0.92225 0.0357,-0.33394 0.0909,-0.66222 0.2497,-0.96334 0.12583,-0.23402 0.24316,-0.48341 0.45963,-0.64869 0.40556,-0.23535 0.80838,-0.47551 1.21669,-0.70606 0.0686,-0.0387 0.16635,-0.0475 0.24269,-0.0349 0.0631,0.0104 0.0671,0.0197 0.12142,0.0519 0.0983,0.0881 0.14867,0.19418 0.11623,0.32788 -0.0358,0.17625 -0.12159,0.31577 -0.25071,0.4418 -0.16466,0.18038 -0.35309,0.34127 -0.54795,0.48792 0,0 -1.23552,0.48802 -1.23552,0.48802 z"
           inkscape:connector-curvature="0" />
        <path
           style="opacity:1;fill:#000000;fill-opacity:1;stroke:#000000;stroke-width:0.5;stroke-linecap:round;stroke-linejoin:miter;stroke-miterlimit:4;stroke-dasharray:none;stroke-dashoffset:0;stroke-opacity:1"
           id="path901"
           d="m 183.31086,192.17006 c 0.11852,-0.21869 0.25957,-0.4222 0.43346,-0.60006 0.48151,-0.38891 1.05043,-0.97917 1.6803,-0.78229 0.2135,0.0925 0.35329,0.27185 0.47395,0.46301 0.13143,0.22267 0.21257,0.46887 0.28428,0.71583 0.0236,0.0831 0.0453,0.1667 0.067,0.2503 0,0 -1.16896,0.63204 -1.16896,0.63204 v 0 c -0.0198,-0.083 -0.0397,-0.16605 -0.0617,-0.24855 -0.0645,-0.23566 -0.13796,-0.47118 -0.2641,-0.6823 -0.10547,-0.16154 -0.22426,-0.32149 -0.42034,-0.37341 -0.0755,-0.008 -0.0876,-0.0156 -0.16143,0.002 -0.0269,0.007 -0.10199,0.0416 -0.0783,0.0273 1.84794,-1.11044 1.26032,-0.75623 0.87487,-0.50621 -0.18641,0.15403 -0.33368,0.34608 -0.44529,0.56081 0,0 -1.21377,0.54105 -1.21377,0.54105 z"
           inkscape:connector-curvature="0" />
        <path
           style="opacity:1;fill:#000000;fill-opacity:1;stroke:#000000;stroke-width:0.5;stroke-linecap:round;stroke-linejoin:miter;stroke-miterlimit:4;stroke-dasharray:none;stroke-dashoffset:0;stroke-opacity:1"
           id="path903"
           d="m 189.27813,180.25731 c -0.0462,0.46807 -0.10132,0.93516 -0.15672,1.40224 -0.11548,0.87509 -0.20182,1.75381 -0.27697,2.63317 -0.10865,1.15249 -0.19212,2.30718 -0.23067,3.46417 -0.0238,1.06377 -0.009,2.12963 0.0738,3.19065 0.0505,0.61494 0.13009,1.23245 0.33743,1.81597 0.073,0.18713 0.18211,0.32101 0.35182,0.4225 0,0 -1.11416,0.71339 -1.11416,0.71339 v 0 c -0.18023,-0.131 -0.30885,-0.28747 -0.38804,-0.49997 -0.20717,-0.59762 -0.28455,-1.22906 -0.33202,-1.85755 -0.0783,-1.06755 -0.0888,-2.13948 -0.0674,-3.20944 0.0359,-1.15761 0.11727,-2.31303 0.22105,-3.46649 0.0696,-0.8773 0.14892,-1.75426 0.25699,-2.62773 0.0504,-0.46318 0.10761,-0.92585 0.1351,-1.39114 0,0 1.18985,-0.58977 1.18985,-0.58977 z"
           inkscape:connector-curvature="0" />
        <path
           style="opacity:1;fill:#000000;fill-opacity:1;stroke:#000000;stroke-width:0.5;stroke-linecap:round;stroke-linejoin:miter;stroke-miterlimit:4;stroke-dasharray:none;stroke-dashoffset:0;stroke-opacity:1"
           id="path905"
           d="m 185.14079,184.56296 c 0.44943,-0.16211 0.92108,-0.24289 1.38846,-0.33358 0.70288,-0.12794 1.41421,-0.19769 2.12564,-0.25636 0.57507,-0.0446 1.15113,-0.0738 1.72726,-0.10055 0,0 -1.05899,0.77648 -1.05899,0.77648 v 0 c -0.57183,0.0234 -1.14353,0.052 -1.7141,0.0973 -0.7099,0.0605 -1.41975,0.13341 -2.11973,0.26994 -0.46864,0.0935 -0.9477,0.17759 -1.38565,0.37632 0,0 1.03711,-0.8296 1.03711,-0.8296 z"
           inkscape:connector-curvature="0" />
      </g>
      <rect
         y="162.45236"
         x="139.02853"
         height="50.955433"
         width="73.995102"
         id="rect965"
         style="opacity:1;fill:none;fill-opacity:1;stroke:#000000;stroke-width:0.47410366;stroke-linecap:round;stroke-linejoin:miter;stroke-miterlimit:4;stroke-dasharray:0.47410364, 5.68924358;stroke-dashoffset:0;stroke-opacity:1" />
    </g>
    <g
       id="g1148">
      <g
         transform="translate(-7.216277,-1.5613128)"
         id="g922">
        <path
           style="opacity:1;fill:#000000;fill-opacity:1;stroke:#000000;stroke-width:0.5;stroke-linecap:round;stroke-linejoin:miter;stroke-miterlimit:4;stroke-dasharray:none;stroke-dashoffset:0;stroke-opacity:1"
           id="path815"
           d="m 53.130357,164.9677 c 0.193765,0.43518 0.244684,0.91463 0.297188,1.38298 0.06472,0.94263 0.05291,1.88833 0.03365,2.83229 -0.02209,1.07231 -0.08099,2.14342 -0.122634,3.21508 -0.01479,0.71316 -0.05869,1.42467 -0.112345,2.13577 -0.02564,0.32293 -0.04991,0.64595 -0.07308,0.96906 -0.0042,0.0315 -0.0083,0.063 -0.01249,0.0945 0,0 -1.193144,0.58118 -1.193144,0.58118 v 0 c 0.0066,-0.0278 0.0132,-0.0555 0.01979,-0.0833 0.02855,-0.32549 0.0565,-0.65104 0.08691,-0.97636 0.0637,-0.71264 0.118028,-1.42586 0.135284,-2.14142 0.04817,-1.07147 0.108302,-2.14273 0.129304,-3.21515 0.0163,-0.93574 0.02426,-1.873 -0.04471,-2.80709 -0.05351,-0.44766 -0.100063,-0.91091 -0.294915,-1.32358 0,0 1.151162,-0.66395 1.151162,-0.66395 z"
           inkscape:connector-curvature="0" />
        <path
           style="opacity:1;fill:#000000;fill-opacity:1;stroke:#000000;stroke-width:0.5;stroke-linecap:round;stroke-linejoin:miter;stroke-miterlimit:4;stroke-dasharray:none;stroke-dashoffset:0;stroke-opacity:1"
           id="path817"
           d="m 50.050146,167.63617 c 0.414272,-0.036 0.82817,-0.0787 1.24142,-0.1258 0.726377,-0.0681 1.447649,-0.17611 2.169335,-0.28086 0.777314,-0.11892 1.548008,-0.27606 2.321224,-0.41835 0.512738,-0.0945 1.028853,-0.16884 1.544989,-0.24195 0.210262,-0.0112 0.394981,-0.0754 0.468368,0.16433 0,0 -1.198562,0.58409 -1.198562,0.58409 v 0 c 0.01236,0.009 0.02614,0.0168 0.03705,0.0276 0.01217,0.0121 -0.0342,-0.004 -0.05136,-0.005 -0.103751,-0.007 -0.207828,0.01 -0.310803,0.0182 -0.510564,0.069 -1.020604,0.14256 -1.52739,0.2359 -0.772681,0.14122 -1.543209,0.29563 -2.320237,0.41179 -0.725485,0.10743 -1.45161,0.20979 -2.18136,0.28453 -0.419266,0.0473 -0.838845,0.0919 -1.257988,0.14003 0,0 1.065313,-0.79442 1.065313,-0.79442 z"
           inkscape:connector-curvature="0" />
        <path
           style="opacity:1;fill:#000000;fill-opacity:1;stroke:#000000;stroke-width:0.5;stroke-linecap:round;stroke-linejoin:miter;stroke-miterlimit:4;stroke-dasharray:none;stroke-dashoffset:0;stroke-opacity:1"
           id="path819"
           d="m 55.534541,176.42322 c 0.0093,-0.33893 0.0078,-0.67733 -0.01474,-1.01563 -0.02426,-0.31178 -0.04893,-0.62352 -0.07233,-0.93536 -0.01196,-0.17497 -0.0231,-0.34998 -0.03148,-0.52515 -0.0078,-0.10176 -0.01384,-0.19985 0.01357,-0.29872 0.38251,-0.6569 1.01147,-0.72354 1.606753,-0.68601 0.201002,-0.005 0.393335,0.0617 0.593051,0.066 0.186153,0.0248 0.329173,-0.0457 0.490577,-0.12252 0,0 -1.041649,0.82478 -1.041649,0.82478 v 0 c -0.171521,0.0693 -0.342085,0.0916 -0.527428,0.0693 -0.197406,-0.024 -0.392965,-0.064 -0.592871,-0.0629 -0.07964,-0.003 -0.160729,-0.009 -0.240347,-0.002 -0.02734,0.003 -0.104786,0.0271 -0.08148,0.0125 1.003326,-0.62651 1.474184,-0.6573 1.01978,-0.62158 -0.09588,0.02 -0.05603,0.13996 -0.058,0.21206 0.0063,0.17495 0.01482,0.34981 0.02511,0.52456 0.01916,0.313 0.04135,0.6258 0.0662,0.9384 0.02426,0.33931 0.02852,0.67822 0.02941,1.01834 0,0 -1.184116,0.60334 -1.184116,0.60334 z"
           inkscape:connector-curvature="0" />
        <path
           style="opacity:1;fill:#000000;fill-opacity:1;stroke:#000000;stroke-width:0.5;stroke-linecap:round;stroke-linejoin:miter;stroke-miterlimit:4;stroke-dasharray:none;stroke-dashoffset:0;stroke-opacity:1"
           id="path821"
           d="m 61.124263,174.16351 c -0.271129,-0.0512 -0.525925,0.0229 -0.772747,0.12936 1.824371,-1.0719 0.84705,-0.55486 0.443576,-0.0597 -0.182403,0.23739 -0.305596,0.50567 -0.371662,0.79627 -0.0528,0.24905 -0.03698,0.50132 0.02588,0.74625 0.04538,0.195 0.131958,0.34307 0.318026,0.42214 0.469003,0.0643 1.61757,-0.74026 -0.502528,0.45738 0.278752,-0.16839 0.491614,-0.41359 0.690343,-0.6668 0.189137,-0.2334 0.329612,-0.49879 0.477215,-0.75882 0.09197,-0.15219 0.169112,-0.31229 0.242586,-0.47397 0.227201,-0.48495 1.000755,-1.08059 1.407899,-0.6446 0.115593,0.16504 0.214251,0.34161 0.315552,0.51573 0.123349,0.20293 0.288108,0.37547 0.468006,0.52883 0.18102,0.12652 0.285996,0.17476 0.473138,0.0357 0,0 -1.037979,0.82049 -1.037979,0.82049 v 0 c -0.217376,0.0441 -0.391385,-0.008 -0.559916,-0.15679 -0.186029,-0.16737 -0.360109,-0.34987 -0.48967,-0.56552 -0.09593,-0.16314 -0.189571,-0.3293 -0.301884,-0.48161 -0.01267,-0.0104 -0.02363,-0.0233 -0.03801,-0.0312 -0.009,-0.005 -0.03915,-10e-4 -0.03029,-0.006 2.595218,-1.54699 1.2892,-0.8229 1.002892,-0.56754 -0.0753,0.16547 -0.14941,0.33242 -0.243665,0.48814 -0.151987,0.2622 -0.287298,0.53561 -0.473993,0.77581 -0.193228,0.26413 -0.402175,0.51864 -0.668634,0.71284 -0.359497,0.20524 -1.214832,0.9719 -1.840365,0.7463 -0.199734,-0.1177 -0.318524,-0.29168 -0.37274,-0.51831 -0.07259,-0.26106 -0.09811,-0.53329 -0.05161,-0.80193 0.05627,-0.30785 0.166709,-0.59389 0.34839,-0.85156 0.456714,-0.62926 1.093857,-0.91746 1.809269,-1.27676 0.267068,-0.0911 0.53635,-0.13088 0.817679,-0.0816 0,0 -1.084739,0.76769 -1.084739,0.76769 z"
           inkscape:connector-curvature="0" />
        <path
           style="opacity:1;fill:#000000;fill-opacity:1;stroke:#000000;stroke-width:0.5;stroke-linecap:round;stroke-linejoin:miter;stroke-miterlimit:4;stroke-dasharray:none;stroke-dashoffset:0;stroke-opacity:1"
           id="path823"
           d="m 65.554367,172.87062 c 0.09697,0.30889 0.199753,0.616 0.303414,0.92273 0.07659,0.26289 0.168177,0.52038 0.268554,0.77499 0.04202,0.10462 0.02172,0.0544 0.06084,0.15061 0,0 -1.160296,0.6475 -1.160296,0.6475 v 0 c -0.0378,-0.0978 -0.01815,-0.0467 -0.0589,-0.15308 -0.09759,-0.25807 -0.190339,-0.51766 -0.265369,-0.78335 -0.10237,-0.30506 -0.2027,-0.61069 -0.309513,-0.91423 0,0 1.161275,-0.64517 1.161275,-0.64517 z"
           inkscape:connector-curvature="0" />
        <path
           style="opacity:1;fill:#000000;fill-opacity:1;stroke:#000000;stroke-width:0.5;stroke-linecap:round;stroke-linejoin:miter;stroke-miterlimit:4;stroke-dasharray:none;stroke-dashoffset:0;stroke-opacity:1"
           id="path825"
           d="m 65.567141,170.38933 c 0.171032,0.10149 0.344562,0.1987 0.517896,0.29618 0.06588,0.0464 0.03567,0.0234 0.09116,0.0681 0,0 -1.12673,0.70989 -1.12673,0.70989 v 0 c -0.04748,-0.0354 -0.02156,-0.0172 -0.07824,-0.054 -0.17204,-0.0999 -0.343961,-0.20006 -0.518285,-0.29593 0,0 1.114195,-0.72427 1.114195,-0.72427 z"
           inkscape:connector-curvature="0" />
        <path
           style="opacity:1;fill:#000000;fill-opacity:1;stroke:#000000;stroke-width:0.5;stroke-linecap:round;stroke-linejoin:miter;stroke-miterlimit:4;stroke-dasharray:none;stroke-dashoffset:0;stroke-opacity:1"
           id="path827"
           d="m 69.023981,171.68529 c 0.06539,0.30757 0.137929,0.61421 0.214815,0.91921 0.08714,0.29691 0.13676,0.60222 0.199379,0.90459 0.05521,0.22659 0.105191,0.45425 0.150109,0.68307 0.02003,0.10945 0.03434,0.21981 0.05465,0.32921 0,0 -1.176227,0.62564 -1.176227,0.62564 v 0 c -0.01873,-0.10984 -0.03076,-0.22065 -0.04939,-0.33052 -0.04121,-0.22909 -0.0886,-0.45689 -0.143706,-0.68308 -0.0649,-0.30021 -0.107304,-0.60548 -0.195201,-0.90067 -0.0788,-0.30519 -0.145606,-0.61361 -0.224084,-0.91889 0,0 1.169652,-0.62856 1.169652,-0.62856 z"
           inkscape:connector-curvature="0" />
        <path
           style="opacity:1;fill:#000000;fill-opacity:1;stroke:#000000;stroke-width:0.5;stroke-linecap:round;stroke-linejoin:miter;stroke-miterlimit:4;stroke-dasharray:none;stroke-dashoffset:0;stroke-opacity:1"
           id="path829"
           d="m 68.396312,174.38939 c 0.214225,-0.19822 0.433758,-0.39103 0.661419,-0.57372 0.541589,-0.40231 1.10391,-0.86931 1.766967,-1.01981 0.246504,-0.0558 0.463166,0.0375 0.671827,0.15923 0.25059,0.16716 0.414105,0.42082 0.558493,0.67877 0.143195,0.28627 0.217689,0.59775 0.28339,0.90892 0.03643,0.18544 0.06503,0.37218 0.08951,0.55952 0,0 -1.17483,0.6168 -1.17483,0.6168 v 0 c -0.02125,-0.18496 -0.04656,-0.36944 -0.08018,-0.55261 -0.05885,-0.29905 -0.126389,-0.59886 -0.262522,-0.87388 -0.132585,-0.23747 -0.283451,-0.47131 -0.522637,-0.61385 -0.198329,-0.10092 -0.393414,-0.15006 -0.611118,-0.0714 -0.414452,0.17192 -1.043432,0.587 0.837525,-0.50632 0.04046,-0.0235 -0.08258,0.0372 -0.21966,0.13708 -0.03772,0.0275 -0.07367,0.0573 -0.110508,0.086 -0.226656,0.17821 -0.444485,0.36567 -0.660281,0.55692 0,0 -1.227392,0.50841 -1.227392,0.50841 z"
           inkscape:connector-curvature="0" />
        <path
           style="opacity:1;fill:#000000;fill-opacity:1;stroke:#000000;stroke-width:0.5;stroke-linecap:round;stroke-linejoin:miter;stroke-miterlimit:4;stroke-dasharray:none;stroke-dashoffset:0;stroke-opacity:1"
           id="path831"
           d="m 75.031877,171.81513 c 0.02588,0.2997 0.06984,0.59765 0.1265,0.89299 0.05526,0.31117 0.137472,0.61543 0.231269,0.91684 0.06607,0.21939 0.12821,0.43792 0.223801,0.64652 0,0 -1.156433,0.65236 -1.156433,0.65236 v 0 c -0.09552,-0.21499 -0.161433,-0.43795 -0.225531,-0.66408 -0.09506,-0.30591 -0.181702,-0.61382 -0.236757,-0.92991 -0.05999,-0.29653 -0.103378,-0.59641 -0.139322,-0.89673 0,0 1.176473,-0.61799 1.176473,-0.61799 z"
           inkscape:connector-curvature="0" />
        <path
           style="opacity:1;fill:#000000;fill-opacity:1;stroke:#000000;stroke-width:0.5;stroke-linecap:round;stroke-linejoin:miter;stroke-miterlimit:4;stroke-dasharray:none;stroke-dashoffset:0;stroke-opacity:1"
           id="path833"
           d="m 74.657727,168.93421 c 0.203364,0.1495 0.40445,0.30199 0.602543,0.4584 0.121039,0.10362 0.247082,0.19701 0.385689,0.27529 0.0503,0.0452 0.08482,0.10179 0.115289,0.16118 0,0 -1.158851,0.65901 -1.158851,0.65901 v 0 c -0.01765,-0.0378 -0.0363,-0.0739 -0.07289,-0.0969 -0.139147,-0.0861 -0.265134,-0.18857 -0.390332,-0.2937 -0.196226,-0.15617 -0.395478,-0.30889 -0.602486,-0.45059 0,0 1.12104,-0.7127 1.12104,-0.7127 z"
           inkscape:connector-curvature="0" />
        <path
           style="opacity:1;fill:#000000;fill-opacity:1;stroke:#000000;stroke-width:0.5;stroke-linecap:round;stroke-linejoin:miter;stroke-miterlimit:4;stroke-dasharray:none;stroke-dashoffset:0;stroke-opacity:1"
           id="path835"
           d="m 77.589675,176.28218 c 0.05244,-0.30142 0.05372,-0.60577 0.04703,-0.91047 0.0011,-0.36767 -0.04057,-0.73288 -0.07604,-1.09824 -0.01797,-0.31133 -0.06576,-0.6188 -0.116821,-0.92601 -0.03066,-0.18168 -0.05969,-0.36376 -0.08233,-0.54663 -0.01365,-0.10789 -0.02297,-0.21618 -0.03049,-0.32464 -0.0062,-0.0509 -0.03715,-0.0934 -0.06613,-0.13416 -0.01037,-0.0144 -0.02127,-0.0284 -0.03211,-0.0425 0,0 1.148178,-0.68166 1.148178,-0.68166 v 0 c 0.01151,0.0159 0.0231,0.0317 0.03407,0.0479 0.04129,0.0617 0.07883,0.12634 0.09888,0.19852 0.0056,0.10667 0.01318,0.21321 0.02474,0.31943 0.01977,0.18203 0.04553,0.36341 0.07431,0.54422 0.04872,0.31082 0.10046,0.62123 0.116263,0.93598 0.0346,0.36823 0.08036,0.73584 0.08062,1.10628 0.0087,0.30859 0.01548,0.61672 -0.02868,0.92339 0,0 -1.191477,0.58853 -1.191477,0.58853 z"
           inkscape:connector-curvature="0" />
        <path
           style="opacity:1;fill:#000000;fill-opacity:1;stroke:#000000;stroke-width:0.5;stroke-linecap:round;stroke-linejoin:miter;stroke-miterlimit:4;stroke-dasharray:none;stroke-dashoffset:0;stroke-opacity:1"
           id="path837"
           d="m 78.135839,175.06533 c 0.10967,-0.25419 0.22929,-0.50428 0.37334,-0.74082 0.122015,-0.20156 0.264774,-0.38592 0.448162,-0.53428 0.508167,-0.32967 1.026247,-0.79625 1.652296,-0.81259 0.208651,0.0167 0.37719,0.0998 0.53036,0.23873 0.173527,0.17037 0.305517,0.37424 0.404442,0.5951 0.111932,0.23603 0.19712,0.48128 0.266227,0.73273 0.04366,0.16895 0.105918,0.33065 0.135977,0.50295 0.0095,0.0657 0.0053,0.0342 0.01278,0.0944 0,0 -1.180558,0.61696 -1.180558,0.61696 v 0 c -0.0047,-0.0573 -0.0021,-0.0274 -0.0083,-0.0897 -0.02162,-0.17026 -0.08041,-0.32736 -0.123825,-0.49274 -0.06392,-0.24584 -0.144668,-0.48559 -0.255037,-0.71499 -0.09033,-0.20342 -0.212831,-0.39113 -0.377428,-0.54296 -0.137678,-0.11003 -0.294156,-0.16619 -0.472609,-0.15155 -0.08661,0.012 -0.161565,0.0317 -0.242242,0.0663 -0.02673,0.0115 -0.104259,0.0514 -0.07922,0.0366 0.930396,-0.54986 1.423873,-0.80525 0.969978,-0.56885 -0.192717,0.13069 -0.353113,0.28809 -0.470215,0.49252 -0.154694,0.22187 -0.266311,0.46705 -0.379595,0.71187 0,0 -1.204542,0.56026 -1.204542,0.56026 z"
           inkscape:connector-curvature="0" />
        <path
           style="opacity:1;fill:#000000;fill-opacity:1;stroke:#000000;stroke-width:0.5;stroke-linecap:round;stroke-linejoin:miter;stroke-miterlimit:4;stroke-dasharray:none;stroke-dashoffset:0;stroke-opacity:1"
           id="path839"
           d="m 86.25239,173.11025 c -0.242308,0.0134 -0.470326,0.0663 -0.698055,0.14692 -0.40985,0.20517 -1.050415,0.56217 0.818621,-0.47667 0.03473,-0.0193 -0.06562,0.045 -0.09647,0.07 -0.07425,0.0603 -0.104045,0.0975 -0.1694,0.16787 -0.151188,0.16725 -0.257349,0.36151 -0.33692,0.57077 -0.06865,0.17248 -0.08942,0.35216 -0.07368,0.53585 0.02032,0.13699 0.0528,0.2731 0.151048,0.37479 0.102949,0.10319 0.248661,0.0982 0.384559,0.0801 -0.08346,0.10456 0.397004,-0.19647 0.26798,-0.12318 -1.837309,1.04365 -1.206291,0.73654 -0.83294,0.44574 0.21045,-0.17487 0.376388,-0.39308 0.532413,-0.61582 0.12677,-0.18134 0.225748,-0.37863 0.304718,-0.58473 0.05432,-0.14686 0.08544,-0.30023 0.110464,-0.45432 0.01823,-0.11515 0.02896,-0.23131 0.03687,-0.34757 -0.0016,-0.0948 -0.03233,-0.18703 -0.05349,-0.27908 -0.02003,-0.0628 -0.02254,-0.13029 -0.04049,-0.19329 -0.02011,-0.0378 -0.04856,-0.0701 -0.07665,-0.10208 -0.01222,-0.0138 -0.02474,-0.0274 -0.03725,-0.041 -0.0051,-0.008 -0.0079,0.0178 -0.0072,0.0271 0.09751,0.45307 -0.0092,0.0169 1.10636,-0.59714 0.01421,-0.008 -0.01585,0.0284 -0.02185,0.0435 -0.02545,0.0638 -0.01233,0.13535 -0.0084,0.20176 0.02098,0.29664 0.08165,0.58902 0.143004,0.87947 0.119063,0.53637 0.248288,1.07007 0.384916,1.60223 0.207447,0.75674 0.370874,1.52449 0.523433,2.29388 0.168135,0.78527 0.290116,1.57869 0.387033,2.37553 0.07583,0.64188 0.07295,1.28461 -0.02767,1.9225 -0.08837,0.45738 -0.280022,0.84659 -0.666842,1.11264 -1.129258,0.64375 -1.278949,0.90704 -2.330532,0.61381 -0.365708,-0.1152 -0.699934,-0.2995 -0.975982,-0.56529 -0.274765,-0.32586 -0.29428,-0.7177 -0.269222,-1.12361 0.04789,-0.35684 0.01333,-0.1679 0.111609,-0.56529 0,0 1.176219,-0.56305 1.176219,-0.56305 v 0 c -0.09809,0.3787 -0.06244,0.19804 -0.113848,0.54055 -0.02917,0.365 -0.03487,0.72474 0.217961,1.01873 0.267203,0.24536 0.587714,0.41315 0.937059,0.51198 0.196345,0.0474 0.387297,0.0882 0.59086,0.0853 0.517618,-0.007 1.120365,-0.44938 -0.573093,0.52011 0.433409,-0.21714 0.605414,-0.54963 0.720058,-1.0115 0.114221,-0.62702 0.124273,-1.25984 0.05363,-1.8938 -0.09215,-0.79471 -0.209804,-1.58622 -0.378545,-2.36871 -0.151434,-0.7663 -0.315931,-1.53067 -0.527079,-2.28305 -0.141208,-0.53151 -0.274108,-1.06483 -0.400066,-1.60011 -0.06618,-0.2941 -0.130849,-0.59045 -0.16053,-0.8907 -0.04836,-0.50505 0.04466,-1.65611 1.189061,-1.03378 0.02933,0.008 0.04304,0.0337 0.06234,0.0552 0.01289,0.0148 0.0258,0.0297 0.03828,0.0448 0.03586,0.0438 0.07041,0.089 0.09638,0.1396 0.03035,0.0676 0.03105,0.14147 0.05006,0.2132 0.02262,0.10472 0.05135,0.20794 0.0707,0.31332 -0.0083,0.11995 -0.01699,0.23983 -0.03308,0.35907 -0.02529,0.16082 -0.05057,0.32245 -0.102664,0.47727 -0.07095,0.21767 -0.168434,0.42592 -0.295084,0.6171 -0.15031,0.23234 -0.31554,0.45785 -0.517144,0.64869 -0.483452,0.44692 -1.079069,0.85399 -1.732386,0.95823 -0.17362,-0.008 -0.331947,-0.0382 -0.451128,-0.1764 -0.108201,-0.12861 -0.164624,-0.27966 -0.189077,-0.44577 -0.0305,-0.19905 -0.01728,-0.40068 0.0475,-0.59235 0.07659,-0.22181 0.167542,-0.43361 0.318609,-0.61678 0.439203,-0.52711 1.074324,-0.84587 1.71288,-1.08729 0.236705,-0.0713 0.479857,-0.10959 0.727316,-0.11645 0,0 -1.075155,0.78115 -1.075155,0.78115 z"
           inkscape:connector-curvature="0" />
      </g>
      <g
         transform="translate(-9.3544332,-7.6171815)"
         id="g937">
        <path
           style="opacity:1;fill:#000000;fill-opacity:1;stroke:#000000;stroke-width:0.5;stroke-linecap:round;stroke-linejoin:miter;stroke-miterlimit:4;stroke-dasharray:none;stroke-dashoffset:0;stroke-opacity:1"
           id="path841"
           d="m 51.923621,191.44585 c 0.143396,0.36708 0.287486,0.73393 0.431028,1.10104 0.205803,0.52446 0.378737,1.06109 0.553505,1.59647 0.189929,0.57022 0.365755,1.14511 0.545166,1.71874 0.167638,0.54393 0.31337,1.09427 0.479095,1.63873 0.127307,0.39068 0.222152,0.79063 0.346083,1.18225 0.03471,0.099 0.06737,0.20374 0.13282,0.28805 0.01066,0.0137 0.02085,0.0312 0.03744,0.0363 0.0086,0.003 0.02759,-0.0226 0.01955,-0.0186 -0.366839,0.184 -0.731335,0.37264 -1.097002,0.55896 0.237688,-0.3523 0.321127,-0.78814 0.428807,-1.19305 0.1827,-0.73282 0.387234,-1.45967 0.588264,-2.18756 0.173035,-0.58513 0.329867,-1.17476 0.469977,-1.7686 0.03894,-0.16711 0.07607,-0.33463 0.113107,-0.50217 0,0 1.190694,-0.57344 1.190694,-0.57344 v 0 c -0.03974,0.16924 -0.07953,0.33846 -0.1205,0.50741 -0.145872,0.59701 -0.304154,1.19096 -0.482131,1.77928 -0.200287,0.72577 -0.408488,1.44935 -0.581621,2.18233 -0.107233,0.41942 -0.197924,0.84701 -0.384421,1.24046 -0.96857,0.55757 -1.191903,1.12201 -1.472345,0.28497 -0.120846,-0.39377 -0.213019,-0.79535 -0.337587,-1.18812 -0.164063,-0.54482 -0.308533,-1.09538 -0.475332,-1.63944 -0.179094,-0.57312 -0.354124,-1.14766 -0.544878,-1.717 -0.174101,-0.53257 -0.346106,-1.06661 -0.554408,-1.58704 -0.145547,-0.36641 -0.287541,-0.73404 -0.446595,-1.09489 0,0 1.161275,-0.64518 1.161275,-0.64518 z"
           inkscape:connector-curvature="0" />
        <path
           style="opacity:1;fill:#000000;fill-opacity:1;stroke:#000000;stroke-width:0.5;stroke-linecap:round;stroke-linejoin:miter;stroke-miterlimit:4;stroke-dasharray:none;stroke-dashoffset:0;stroke-opacity:1"
           id="path843"
           d="m 59.020992,197.22817 c -1.001006,0.61635 3.827902,-2.27431 -0.32798,0.18294 -0.336026,0.19868 0.676249,-0.3902 1.016029,-0.5824 0.0759,-0.0429 -0.146833,0.0941 -0.219421,0.14247 -0.195469,0.12613 -0.352052,0.29246 -0.500896,0.46852 -0.116941,0.1455 -0.203113,0.30997 -0.253675,0.48928 -0.03077,0.14584 -0.02143,0.28986 0.01005,0.43398 0.03251,0.0894 0.04971,0.22703 0.169609,0.20773 0.06113,-0.001 0.116787,-0.0275 0.166992,-0.0612 0.02199,-0.0148 0.08543,-0.0624 0.06231,-0.0494 -1.023688,0.57385 -1.382313,0.86589 -0.985043,0.54914 0.158869,-0.14699 0.293602,-0.31514 0.416385,-0.49256 0.103748,-0.14006 0.194247,-0.28848 0.302914,-0.42483 0.05908,-0.0827 0.119028,-0.1658 0.166359,-0.25597 0.448064,-0.3062 1.103479,-1.04854 1.408385,-0.45074 0.06474,0.14333 0.145407,0.27784 0.226166,0.41239 0.08764,0.14891 0.208669,0.26637 0.329316,0.387 0.122029,0.0961 0.24493,0.10817 0.392959,0.0787 0,0 -1.067467,0.78922 -1.067467,0.78922 v 0 c -0.176453,-0.003 -0.326186,-0.0502 -0.457406,-0.17353 -0.129537,-0.1271 -0.249764,-0.26024 -0.345543,-0.4156 -0.08301,-0.13712 -0.165738,-0.27424 -0.234331,-0.41939 -0.220041,-0.44698 -1.8141,1.01239 0.977786,-0.72085 -0.08727,0.0419 -0.11059,0.17382 -0.176487,0.24154 -0.0976,0.14458 -0.216625,0.27436 -0.306859,0.42485 -0.130193,0.17625 -0.244909,0.36305 -0.405064,0.51607 -0.381277,0.41677 -0.06724,0.0878 -1.274397,0.7902 -0.08891,0.0517 -0.194731,0.0566 -0.291814,0.0313 -0.142743,-0.0696 -0.199904,-0.18628 -0.245695,-0.33441 -0.03693,-0.1607 -0.05933,-0.31949 -0.03355,-0.48453 0.02734,-0.19986 0.118274,-0.38036 0.229235,-0.54738 0.141964,-0.188 0.295452,-0.36633 0.488764,-0.504 0.450533,-0.336 1.01586,-0.60114 1.462635,-0.87711 0.331796,-0.20495 -1.352221,0.77779 -1.012827,0.58568 2.281637,-1.29149 0.74671,-0.44137 1.345702,-0.77283 0,0 -1.033126,0.83585 -1.033126,0.83585 z"
           inkscape:connector-curvature="0" />
        <path
           style="opacity:1;fill:#000000;fill-opacity:1;stroke:#000000;stroke-width:0.5;stroke-linecap:round;stroke-linejoin:miter;stroke-miterlimit:4;stroke-dasharray:none;stroke-dashoffset:0;stroke-opacity:1"
           id="path845"
           d="m 64.073775,191.74675 c 0.02741,0.47774 0.0653,0.95464 0.101139,1.43182 0.04889,0.70838 0.07352,1.41809 0.09497,2.12773 0.01746,0.60823 0.02949,1.21661 0.04013,1.825 0.0069,0.35582 0.01177,0.71168 0.01744,1.06752 0.0021,0.13498 0.0045,0.26995 0.0068,0.40493 0,0 -1.185175,0.60508 -1.185175,0.60508 v 0 c 1.19e-4,-0.13609 1.85e-4,-0.27218 3e-6,-0.40827 -5.29e-4,-0.35761 -0.0029,-0.71521 -0.0057,-1.0728 -0.0061,-0.60937 -0.0141,-1.21874 -0.02998,-1.82794 -0.01987,-0.70704 -0.04356,-1.41426 -0.09676,-2.11972 -0.03791,-0.47321 -0.07871,-0.9462 -0.119202,-1.41912 0,0 1.176366,-0.61423 1.176366,-0.61423 z"
           inkscape:connector-curvature="0" />
        <path
           style="opacity:1;fill:#000000;fill-opacity:1;stroke:#000000;stroke-width:0.5;stroke-linecap:round;stroke-linejoin:miter;stroke-miterlimit:4;stroke-dasharray:none;stroke-dashoffset:0;stroke-opacity:1"
           id="path847"
           d="m 67.019024,197.19871 c 0.0565,0.2539 0.102542,0.50954 0.167439,0.76147 0.05679,0.19807 0.101224,0.39914 0.140835,0.60123 0.01445,0.0747 0.02824,0.14961 0.04192,0.2245 0,0 -1.176239,0.62486 -1.176239,0.62486 v 0 c -0.01217,-0.075 -0.02445,-0.14988 -0.03756,-0.22466 -0.03579,-0.20033 -0.07716,-0.3996 -0.132405,-0.59561 -0.06515,-0.25181 -0.110506,-0.50722 -0.172773,-0.75974 0,0 1.168781,-0.63205 1.168781,-0.63205 z"
           inkscape:connector-curvature="0" />
        <path
           style="opacity:1;fill:#000000;fill-opacity:1;stroke:#000000;stroke-width:0.5;stroke-linecap:round;stroke-linejoin:miter;stroke-miterlimit:4;stroke-dasharray:none;stroke-dashoffset:0;stroke-opacity:1"
           id="path849"
           d="m 66.903686,194.61044 c 0.147982,0.154 0.301424,0.30259 0.452393,0.45362 0.09237,0.092 0.185314,0.18338 0.27832,0.27471 0.0081,0.0125 0.01617,0.0249 0.02424,0.0373 0.0027,0.003 0.0054,0.007 0.0081,0.0104 0,0 -1.151093,0.67586 -1.151093,0.67586 v 0 c -0.01125,-0.0186 -0.0056,-0.009 -0.01701,-0.0276 -0.09104,-0.0927 -0.18215,-0.18537 -0.273833,-0.27746 -0.151133,-0.15106 -0.299826,-0.3046 -0.453919,-0.45268 0,0 1.132747,-0.69415 1.132747,-0.69415 z"
           inkscape:connector-curvature="0" />
        <path
           style="opacity:1;fill:#000000;fill-opacity:1;stroke:#000000;stroke-width:0.5;stroke-linecap:round;stroke-linejoin:miter;stroke-miterlimit:4;stroke-dasharray:none;stroke-dashoffset:0;stroke-opacity:1"
           id="path851"
           d="m 71.285298,197.03087 c -0.261941,-0.005 -0.524037,0.0403 -0.772885,0.1202 -0.03771,0.0135 -0.07606,0.0254 -0.113136,0.0406 -0.113467,0.0465 -0.315302,0.16213 -0.203917,0.0978 1.880161,-1.08651 1.264465,-0.75892 0.898395,-0.4972 -0.133519,0.10046 -0.233206,0.2314 -0.306893,0.37991 -0.05579,0.15573 -0.04994,0.32373 -0.02786,0.48521 0.02085,0.1664 0.06221,0.3293 0.12537,0.48456 0.0574,0.11866 0.136986,0.22682 0.23136,0.3187 0.09571,0.0843 0.177511,0.068 0.28898,0.0328 0.352433,-0.19651 1.362528,-0.75986 -1.029647,0.58186 -0.02302,0.0129 0.04579,-0.0264 0.0672,-0.0419 0.07724,-0.0557 0.136493,-0.12808 0.197233,-0.20033 0.162904,-0.20372 0.269888,-0.44437 0.366591,-0.68473 0.110583,-0.30294 0.19626,-0.6126 0.259575,-0.92858 0.06987,-0.37659 0.0969,-0.75901 0.11934,-1.14079 0.02265,-0.42616 0.03126,-0.85286 0.03928,-1.2795 0.0056,-0.35155 0.0084,-0.70314 0.0098,-1.05473 2.65e-4,-0.21105 0.0016,-0.42211 0.0013,-0.63316 2.1e-5,-0.11914 9.8e-5,-0.23828 -5.29e-4,-0.35742 0.0016,-0.004 -0.0034,-0.0926 -5.29e-4,-0.093 0.0065,-0.001 0.0168,0.0523 0.01805,0.0516 0.383156,-0.19065 0.757832,-0.3979 1.136747,-0.59685 -0.04793,0.24421 0.0033,0.50408 0.03576,0.74795 0.06836,0.56651 0.190974,1.12445 0.305927,1.68282 0.146249,0.70413 0.337349,1.39768 0.530199,2.09013 0.156168,0.5423 0.337338,1.0768 0.562258,1.59449 0.05805,0.11965 0.247523,0.56389 0.426061,0.55789 0.03178,-0.001 0.0573,-0.0276 0.08595,-0.0414 0,0 -1.065673,0.7878 -1.065673,0.7878 v 0 c -0.04388,-0.008 -0.09009,-0.007 -0.131625,-0.0233 -0.24661,-0.0958 -0.350898,-0.42961 -0.459348,-0.63797 -0.223369,-0.52543 -0.404299,-1.0667 -0.559909,-1.61595 -0.192434,-0.69521 -0.383751,-1.39128 -0.535961,-2.09665 -0.118179,-0.55889 -0.244673,-1.11706 -0.322006,-1.68345 -0.04137,-0.26455 -0.08179,-0.53059 -0.07677,-0.79916 0.392303,-0.23671 0.776401,-0.48759 1.176909,-0.71013 0.04888,-0.0272 0.06536,0.1478 0.06092,0.18083 -0.0013,0.11982 -0.0019,0.23964 -0.0031,0.35946 -0.0024,0.21216 -0.0035,0.42433 -0.0068,0.63648 -0.0046,0.35295 -0.0089,0.7059 -0.01511,1.05883 -0.0075,0.42808 -0.01712,0.85621 -0.03734,1.2839 -0.01961,0.3863 -0.04325,0.77308 -0.107797,1.155 -0.05959,0.32221 -0.139649,0.63803 -0.247703,0.94764 -0.08753,0.24992 -0.19609,0.49988 -0.346726,0.71816 -0.344958,0.4983 -0.917712,0.86816 -1.514953,0.98523 -0.141857,0.009 -0.259136,-0.0408 -0.361247,-0.13981 -0.102264,-0.10739 -0.191375,-0.22979 -0.255457,-0.36374 -0.06963,-0.16392 -0.116735,-0.33708 -0.140264,-0.51372 -0.02943,-0.18317 -0.03848,-0.36589 -0.005,-0.54982 0.05999,-0.16876 0.152091,-0.31695 0.281123,-0.44266 0.494966,-0.41869 1.081222,-0.74568 1.699366,-0.94012 0.262207,-0.0627 0.528968,-0.10127 0.799385,-0.095 0,0 -1.075155,0.78115 -1.075155,0.78115 z"
           inkscape:connector-curvature="0" />
        <path
           style="opacity:1;fill:#000000;fill-opacity:1;stroke:#000000;stroke-width:0.5;stroke-linecap:round;stroke-linejoin:miter;stroke-miterlimit:4;stroke-dasharray:none;stroke-dashoffset:0;stroke-opacity:1"
           id="path853"
           d="m 77.527832,196.17441 c -0.20973,0.13958 -0.393949,0.31299 -0.562764,0.49906 -0.131085,0.14789 -0.228499,0.31823 -0.305202,0.49925 -0.04639,0.12821 -0.09218,0.26017 -0.09201,0.39772 0.0011,0.10169 0.01958,0.18889 0.08703,0.26563 0.0789,0.0621 0.179435,0.0481 0.270922,0.0179 -0.06209,0.0867 0.394476,-0.19232 0.271759,-0.12268 -1.028282,0.58352 -1.404596,0.84039 -0.991431,0.56115 0.158703,-0.10541 0.276583,-0.25549 0.390057,-0.40585 0.08433,-0.11939 0.161563,-0.24284 0.249698,-0.35959 0.0472,-0.0697 0.08664,-0.14417 0.12515,-0.21889 0.335484,-1.76052 1.198097,-0.76475 1.401527,-0.32799 0.07928,0.20311 0.176062,0.39768 0.275077,0.5916 0.106818,0.18411 0.220763,0.36648 0.382434,0.50697 0.08868,0.0587 0.152276,0.0496 0.251304,0.0279 0,0 -1.068872,0.78285 -1.068872,0.78285 v 0 c -0.121398,-0.0125 -0.215013,-0.0292 -0.310118,-0.1127 -0.166047,-0.15825 -0.291854,-0.34981 -0.404264,-0.54905 -0.100121,-0.19475 -0.200618,-0.38903 -0.281126,-0.59304 -0.28109,-0.58618 -0.445793,-0.0145 0.987462,-0.872 0.0052,-0.003 -0.01201,-0.002 -0.01802,-0.003 -0.03968,0.0784 -0.07986,0.15649 -0.122695,0.23319 -0.07287,0.12882 -0.181763,0.23463 -0.249571,0.36725 -0.111485,0.15749 -0.225306,0.31933 -0.373655,0.44388 -0.467445,0.36302 -0.990272,0.73332 -1.579255,0.84708 -0.135959,-5.3e-4 -0.253884,-0.0228 -0.348121,-0.13009 -0.07969,-0.1014 -0.123862,-0.21111 -0.127696,-0.34145 -0.01204,-0.15506 0.01725,-0.30066 0.07048,-0.44739 0.06689,-0.19519 0.161044,-0.38021 0.290655,-0.54177 0.156649,-0.19844 0.341956,-0.37816 0.545732,-0.52771 0,0 1.235517,-0.48803 1.235517,-0.48803 z"
           inkscape:connector-curvature="0" />
        <path
           style="opacity:1;fill:#000000;fill-opacity:1;stroke:#000000;stroke-width:0.5;stroke-linecap:round;stroke-linejoin:miter;stroke-miterlimit:4;stroke-dasharray:none;stroke-dashoffset:0;stroke-opacity:1"
           id="path855"
           d="m 81.702147,189.74538 c -0.04868,0.39608 -0.06668,0.79514 -0.08361,1.19358 -0.02691,0.60702 0.0054,1.21468 0.04343,1.82047 0.05171,0.64747 0.13086,1.29277 0.256844,1.93004 0.09391,0.49848 0.213416,0.9908 0.351944,1.47855 0.09748,0.31894 0.224041,0.62663 0.375343,0.92346 0.08564,0.13918 0.04066,0.0712 0.134892,0.20399 0,0 -1.140198,0.67202 -1.140198,0.67202 v 0 c -0.100348,-0.14362 -0.0525,-0.0698 -0.143422,-0.22144 -0.152596,-0.30593 -0.282882,-0.62146 -0.380863,-0.9495 -0.137022,-0.49243 -0.256418,-0.98889 -0.349094,-1.49181 -0.127211,-0.64294 -0.206848,-1.29377 -0.261474,-1.94679 -0.04096,-0.60829 -0.07853,-1.21837 -0.05806,-1.82827 0.01421,-0.39854 0.03117,-0.79703 0.06441,-1.19453 0,0 1.18985,-0.58977 1.18985,-0.58977 z"
           inkscape:connector-curvature="0" />
        <path
           style="opacity:1;fill:#000000;fill-opacity:1;stroke:#000000;stroke-width:0.5;stroke-linecap:round;stroke-linejoin:miter;stroke-miterlimit:4;stroke-dasharray:none;stroke-dashoffset:0;stroke-opacity:1"
           id="path857"
           d="m 79.717679,192.99858 c 0.382405,-0.10416 0.762096,-0.21813 1.147236,-0.31222 0.427935,-0.11928 0.864828,-0.19916 1.29575,-0.30606 0.294973,-0.074 0.595169,-0.1192 0.885454,-0.21036 0.11299,-0.0387 0.229029,-0.069 0.331253,-0.13208 0,0 -1.041117,0.83126 -1.041117,0.83126 v 0 c -0.111273,0.0415 -0.225512,0.075 -0.339124,0.10934 -0.291523,0.0784 -0.590643,0.12392 -0.882703,0.20062 -0.430898,0.10172 -0.865875,0.18588 -1.292577,0.30512 -0.386741,0.10018 -0.771342,0.20934 -1.152559,0.32887 0,0 1.048387,-0.81449 1.048387,-0.81449 z"
           inkscape:connector-curvature="0" />
        <path
           style="opacity:1;fill:#000000;fill-opacity:1;stroke:#000000;stroke-width:0.5;stroke-linecap:round;stroke-linejoin:miter;stroke-miterlimit:4;stroke-dasharray:none;stroke-dashoffset:0;stroke-opacity:1"
           id="path859"
           d="m 85.043829,196.55229 c -0.03957,0.26512 -0.02453,0.5347 -0.01887,0.8017 0.01733,0.21424 0.0423,0.42901 0.102548,0.63574 0.02381,0.0733 0.04727,0.15578 0.114567,0.19948 0,0 -1.131184,0.70091 -1.131184,0.70091 v 0 c -0.07111,-0.0758 -0.12246,-0.16222 -0.148143,-0.26431 -0.06467,-0.21799 -0.09323,-0.44281 -0.114845,-0.66894 -0.0057,-0.2717 -0.01937,-0.54511 0.0044,-0.81604 0,0 1.191477,-0.58854 1.191477,-0.58854 z"
           inkscape:connector-curvature="0" />
        <path
           style="opacity:1;fill:#000000;fill-opacity:1;stroke:#000000;stroke-width:0.5;stroke-linecap:round;stroke-linejoin:miter;stroke-miterlimit:4;stroke-dasharray:none;stroke-dashoffset:0;stroke-opacity:1"
           id="path861"
           d="m 84.416674,194.97691 c 0.07583,-0.21725 0.174485,-0.42483 0.270759,-0.63345 0.04719,-0.10225 0.02445,-0.053 0.0682,-0.14778 0,0 1.209125,-0.55077 1.209125,-0.55077 v 0 c -0.04535,0.0954 -0.02183,0.0458 -0.07058,0.14867 -0.09689,0.20515 -0.201923,0.40713 -0.272961,0.62307 0,0 -1.204539,0.56026 -1.204539,0.56026 z"
           inkscape:connector-curvature="0" />
        <path
           style="opacity:1;fill:#000000;fill-opacity:1;stroke:#000000;stroke-width:0.5;stroke-linecap:round;stroke-linejoin:miter;stroke-miterlimit:4;stroke-dasharray:none;stroke-dashoffset:0;stroke-opacity:1"
           id="path863"
           d="m 89.025438,195.10422 c -0.220173,0.19743 -0.389946,0.43777 -0.549161,0.68471 -0.143233,0.21696 -0.250233,0.4484 -0.298771,0.70376 -0.03911,0.21538 -0.02863,0.43247 0.0082,0.64701 0.03423,0.18573 0.119094,0.35344 0.216879,0.51284 0.104836,0.14027 0.229103,0.26272 0.368067,0.36851 0.145616,0.10653 0.311343,0.10664 0.483537,0.10967 0.215061,-0.024 0.40532,-0.1298 0.598064,-0.2197 0.470342,-0.28427 -0.155149,0.0949 -0.924528,0.52656 -0.03778,0.0212 0.07228,-0.0478 0.107722,-0.0727 0.100341,-0.0705 0.19589,-0.14721 0.291224,-0.22422 0.17185,-0.13473 0.319935,-0.29599 0.461476,-0.46142 0.113416,-0.13045 0.183737,-0.28453 0.235305,-0.44767 0.04634,-0.16034 0.07159,-0.32398 0.06539,-0.49065 -0.0066,-0.16137 -0.05327,-0.31567 -0.13653,-0.45347 -0.0935,-0.144 -0.228285,-0.24503 -0.369221,-0.33846 -0.188423,-0.0913 -0.395518,-0.14405 -0.604319,-0.15372 -0.18755,-0.0181 -0.365217,0.0373 -0.546192,0.075 -0.09024,0.0399 -0.0463,0.0196 -0.131914,0.0607 0,0 1.044369,-0.82219 1.044369,-0.82219 v 0 c 0.093,-0.0315 0.04455,-0.0175 0.145589,-0.0412 0.187463,-0.0397 0.375981,-0.0657 0.567931,-0.0405 0.224089,0.0333 0.447829,0.0881 0.642969,0.20777 0.153528,0.1081 0.297591,0.22675 0.399987,0.3869 0.09218,0.15557 0.154575,0.32811 0.166362,0.50978 0.01413,0.17944 0.0019,0.35493 -0.04583,0.52969 -0.04257,0.17643 -0.102841,0.35086 -0.214635,0.49645 -0.130935,0.17853 -0.287563,0.34116 -0.452271,0.48846 -0.52837,0.43863 -1.105585,0.80695 -1.739154,1.08887 -0.201837,0.0929 -0.411078,0.18068 -0.638,0.17061 -0.194025,-0.0133 -0.376016,-0.0516 -0.531384,-0.17729 -0.146852,-0.11962 -0.280202,-0.25508 -0.391012,-0.40924 -0.106286,-0.17264 -0.198536,-0.35532 -0.239392,-0.55557 -0.04645,-0.22652 -0.06241,-0.45939 -0.02765,-0.68893 0.03766,-0.27182 0.126436,-0.52221 0.279474,-0.75255 0.152815,-0.25283 0.31538,-0.50382 0.530053,-0.7093 0,0 1.227391,-0.5084 1.227391,-0.5084 z"
           inkscape:connector-curvature="0" />
        <path
           style="opacity:1;fill:#000000;fill-opacity:1;stroke:#000000;stroke-width:0.5;stroke-linecap:round;stroke-linejoin:miter;stroke-miterlimit:4;stroke-dasharray:none;stroke-dashoffset:0;stroke-opacity:1"
           id="path865"
           d="m 93.468218,194.674 c -0.0043,0.30236 0.03234,0.60383 0.05591,0.90498 0.02199,0.28571 0.03685,0.57187 0.04978,0.8581 0.0074,0.18551 0.0141,0.37104 0.01926,0.55662 0.0024,0.0902 0.005,0.18038 0.0075,0.27057 -0.0052,-0.002 0.01349,0.0242 0.015,0.0197 0.0056,-0.0164 0.0061,-0.0592 -0.0093,-0.0512 -0.366953,0.18952 -0.726077,0.39384 -1.089115,0.59076 0.111699,-0.13762 0.209484,-0.28597 0.302628,-0.4366 0.133644,-0.21081 0.278889,-0.4136 0.436441,-0.60711 0.42101,-0.49105 1.003937,-0.94991 1.650195,-1.05076 0.272968,-0.003 0.491101,0.14515 0.684708,0.32241 0.260339,0.24907 0.425211,0.57054 0.562612,0.89868 0.11289,0.28882 0.187053,0.5902 0.2554,0.892 0.0074,0.0335 0.01468,0.067 0.02204,0.10054 0,0 -1.168705,0.62623 -1.168705,0.62623 v 0 c -0.0067,-0.0335 -0.01339,-0.067 -0.02011,-0.10045 -0.06171,-0.29588 -0.130088,-0.59135 -0.238247,-0.87434 -0.128087,-0.31084 -0.283458,-0.61476 -0.535278,-0.8449 -0.176004,-0.14743 -0.375645,-0.27293 -0.6139,-0.21151 -0.458001,0.19568 -0.09799,0.0461 0.960655,-0.57588 0.02911,-0.0171 -0.06098,0.0298 -0.08829,0.0497 -0.0952,0.0693 -0.173762,0.16459 -0.252674,0.25052 -0.159631,0.18778 -0.308124,0.3823 -0.441989,0.58945 -0.0954,0.15349 -0.189344,0.30722 -0.292937,0.45499 -0.418981,0.25196 -1.063336,1.14449 -1.326102,0.56539 -7.94e-4,-0.0907 -0.0019,-0.18145 -0.0033,-0.27217 -0.0032,-0.18565 -0.0075,-0.3713 -0.01365,-0.55688 -0.01005,-0.28544 -0.02334,-0.5708 -0.04391,-0.8557 -0.02283,-0.30323 -0.05739,-0.60602 -0.06878,-0.90977 0,0 1.184116,-0.60334 1.184116,-0.60334 z"
           inkscape:connector-curvature="0" />
      </g>
      <g
         transform="translate(-4.8108512,-10.214664)"
         id="g945">
        <path
           style="opacity:1;fill:#000000;fill-opacity:1;stroke:#000000;stroke-width:0.5;stroke-linecap:round;stroke-linejoin:miter;stroke-miterlimit:4;stroke-dasharray:none;stroke-dashoffset:0;stroke-opacity:1"
           id="path867"
           d="m 52.303312,207.77761 c -0.05295,0.41051 -0.06895,0.82476 -0.08565,1.23799 -0.02421,0.67635 -0.0318,1.35313 -0.03888,2.02983 -0.0062,0.71718 -0.0089,1.43439 -0.01045,2.1516 0.01286,0.65183 0.04663,1.30303 0.07027,1.95453 0.02,0.57269 0.03167,1.14563 0.04106,1.71858 0.0077,0.44544 0.0036,0.8907 0.03709,1.33513 0.01617,0.26497 0.01233,0.53062 0.0078,0.79589 0.0013,0.0747 -0.0266,0.14387 -0.02691,0.21779 0,0 -1.245349,0.47972 -1.245349,0.47972 v 0 c 0.06719,0.0551 0.06952,-0.0477 0.08816,-0.0982 0.0095,-0.26269 0.01723,-0.52569 0.0074,-0.7885 -0.03391,-0.44807 -0.02948,-0.89664 -0.03368,-1.34581 -0.0078,-0.57278 -0.01733,-1.14556 -0.03628,-1.7181 -0.02191,-0.65361 -0.05285,-1.30689 -0.06921,-1.96067 0.0032,-0.71781 0.0061,-1.43563 0.01233,-2.15343 0.0056,-0.67617 0.01111,-1.3524 0.02847,-2.02838 0.0127,-0.41354 0.02809,-0.82705 0.06238,-1.23947 0,0 1.191474,-0.58854 1.191474,-0.58854 z"
           inkscape:connector-curvature="0" />
        <path
           style="opacity:1;fill:#000000;fill-opacity:1;stroke:#000000;stroke-width:0.5;stroke-linecap:round;stroke-linejoin:miter;stroke-miterlimit:4;stroke-dasharray:none;stroke-dashoffset:0;stroke-opacity:1"
           id="path869"
           d="m 48.307997,210.5175 c 0.34258,-0.10016 0.687155,-0.19277 1.02737,-0.30094 0.520059,-0.14652 1.033491,-0.3149 1.547129,-0.48218 0.658316,-0.22422 1.315482,-0.45177 1.973543,-0.67672 0.707639,-0.24107 1.411055,-0.49406 2.117239,-0.7393 0.564104,-0.21104 1.136459,-0.40055 1.712243,-0.57718 0.382537,-0.14343 0.781436,-0.23396 1.170231,-0.35666 0.120573,-0.0359 0.237593,-0.0822 0.353403,-0.13104 0.02588,-0.0109 0.10168,-0.0475 0.07736,-0.0335 -1.387295,0.80233 -1.428747,0.82868 -1.043519,0.59054 0.009,-0.005 0.01794,-0.0103 0.02691,-0.0154 0,0 1.217999,-0.54011 1.217999,-0.54011 v 0 c -0.0044,0.0172 -0.0087,0.0344 -0.0131,0.0515 -0.375904,0.47704 -1.082091,0.69473 -1.663235,0.88441 -0.389069,0.11222 -0.779645,0.21902 -1.162513,0.3518 -0.571574,0.1781 -1.139989,0.36683 -1.701561,0.57448 -0.705975,0.24423 -1.408621,0.49788 -2.116096,0.7378 -0.659823,0.22641 -1.318408,0.45647 -1.979567,0.67896 -0.516493,0.16865 -1.033727,0.33487 -1.555486,0.48664 -0.346405,0.1065 -0.695192,0.2052 -1.043868,0.30396 0,0 1.055518,-0.80711 1.055518,-0.80711 z"
           inkscape:connector-curvature="0" />
        <path
           style="opacity:1;fill:#000000;fill-opacity:1;stroke:#000000;stroke-width:0.5;stroke-linecap:round;stroke-linejoin:miter;stroke-miterlimit:4;stroke-dasharray:none;stroke-dashoffset:0;stroke-opacity:1"
           id="path871"
           d="m 57.39516,216.93197 c 0.230976,-0.0548 0.45281,-0.1415 0.668252,-0.24001 0.456412,-0.21549 0.145915,-0.0718 -0.968261,0.56117 -0.02334,0.0133 0.04632,-0.0272 0.06896,-0.0416 0.05541,-0.0353 0.105034,-0.073 0.152344,-0.11841 0.05802,-0.0638 0.121724,-0.13632 0.133038,-0.22444 0.006,-0.075 -0.04747,-0.11213 -0.102968,-0.15386 -0.122187,-0.0264 -0.237964,-0.0186 -0.35927,0.004 -0.479401,0.17554 -1.327012,0.71952 0.645695,-0.41151 -0.190379,0.11798 -0.323996,0.29424 -0.440907,0.48121 -0.121807,0.20899 -0.179872,0.44337 -0.225833,0.67846 -0.04184,0.27568 -0.01328,0.54839 0.04415,0.81874 0.06219,0.25485 0.176758,0.49057 0.336587,0.69761 0.155742,0.18293 0.355124,0.27464 0.586693,0.31453 0.269131,0.0225 0.528428,-0.0387 0.777941,-0.13447 0.420827,-0.19035 1.054224,-0.57874 -0.771763,0.46217 0,0 1.234008,-0.47422 1.234008,-0.47422 v 0 c -0.505695,0.28948 -0.96724,0.62159 -1.50645,0.82389 -0.268216,0.0787 -0.541665,0.13129 -0.820983,0.0775 -0.252008,-0.0653 -0.470009,-0.18898 -0.637146,-0.39328 -0.168304,-0.22467 -0.293066,-0.47583 -0.363368,-0.74869 -0.06342,-0.2857 -0.09976,-0.57083 -0.06967,-0.8643 0.042,-0.24664 0.09462,-0.49323 0.206042,-0.7193 0.106796,-0.20032 0.234915,-0.39517 0.415713,-0.53641 0.430313,-0.25232 1.062903,-0.75881 1.654588,-0.8662 0.145661,-0.0101 0.298627,1e-5 0.422576,0.0848 0.07771,0.0698 0.156591,0.14518 0.161698,0.25655 0.0078,0.11724 -0.01831,0.21772 -0.09436,0.31165 -0.356696,0.46105 -1.037453,0.68522 -1.518015,0.93695 -0.222102,0.0924 -0.45079,0.16856 -0.684803,0.22489 0,0 1.055516,-0.80711 1.055516,-0.80711 z"
           inkscape:connector-curvature="0" />
        <path
           style="opacity:1;fill:#000000;fill-opacity:1;stroke:#000000;stroke-width:0.5;stroke-linecap:round;stroke-linejoin:miter;stroke-miterlimit:4;stroke-dasharray:none;stroke-dashoffset:0;stroke-opacity:1"
           id="path873"
           d="m 63.030033,216.20431 c -1.021106,0.58457 3.850561,-2.23859 -0.327977,0.18293 -0.335272,0.1943 0.671128,-0.38758 1.007398,-0.58014 0.03957,-0.0226 -0.0778,0.0476 -0.117255,0.0704 -0.415179,0.24036 -0.831086,0.47946 -1.24663,0.71919 1.93934,-1.11351 1.020699,-0.62054 0.614757,-0.30933 -0.08941,0.0817 -0.203578,0.14554 -0.27514,0.24459 -0.05542,0.0892 -0.02511,0.17177 0.02339,0.25545 0.110807,0.13372 0.262234,0.22267 0.405125,0.31753 0.189619,0.1297 0.385796,0.24935 0.574323,0.38071 0.183695,0.13523 0.342339,0.29611 0.49022,0.46891 0.134376,0.15812 0.203438,0.3402 0.225422,0.54426 0.0024,0.21588 -0.08293,0.4016 -0.19917,0.57757 -0.109178,0.1665 -0.265457,0.29136 -0.420008,0.41337 -0.421248,0.29668 -0.892506,0.52939 -1.335458,0.78003 -0.05657,0.032 -0.119131,0.0487 -0.175916,0.0818 -0.07254,0.0567 -0.14446,0.0709 -0.233429,0.0731 0,0 1.066126,-0.80018 1.066126,-0.80018 v 0 c 0.07389,-0.0238 0.13381,-0.0739 0.20533,-0.10398 0.860467,-0.37484 -1.4848,0.87166 -0.760937,0.45672 0.160436,-0.10281 0.31073,-0.23003 0.439415,-0.37 0.107834,-0.1568 0.218194,-0.30061 0.234754,-0.49855 -1.08e-4,-0.17873 -0.06598,-0.33363 -0.181427,-0.46974 -0.142198,-0.16302 -0.293534,-0.31588 -0.471366,-0.44069 -0.189524,-0.12858 -0.383918,-0.24972 -0.573384,-0.3784 -0.159927,-0.10521 -0.325324,-0.21057 -0.440997,-0.3666 -0.06716,-0.1134 -0.118403,-0.23891 -0.08478,-0.37235 0.04687,-0.13466 0.143306,-0.21283 0.255148,-0.29968 0.501764,-0.408 1.096637,-0.68101 1.646873,-1.01603 -0.338601,0.19629 -0.676601,0.39361 -1.015802,0.58885 -0.03976,0.0229 0.07778,-0.0487 0.117427,-0.0717 0.417584,-0.24307 0.836996,-0.48299 1.254229,-0.72666 0.336764,-0.19668 -1.352222,0.77778 -1.012831,0.58567 2.28164,-1.29148 0.746713,-0.44137 1.345705,-0.77282 0,0 -1.033129,0.83585 -1.033129,0.83585 z"
           inkscape:connector-curvature="0" />
        <path
           style="opacity:1;fill:#000000;fill-opacity:1;stroke:#000000;stroke-width:0.5;stroke-linecap:round;stroke-linejoin:miter;stroke-miterlimit:4;stroke-dasharray:none;stroke-dashoffset:0;stroke-opacity:1"
           id="path875"
           d="m 67.815615,210.04477 c 0.03617,0.45454 0.01013,0.91162 -0.01516,1.36606 -0.04365,0.65772 -0.06923,1.31565 -0.06425,1.97476 0.0016,0.63847 0.0546,1.27537 0.14165,1.90748 0.06802,0.48263 0.1661,0.96056 0.307091,1.42715 0.08562,0.29 0.200965,0.57251 0.36507,0.82708 0.08385,0.14085 0.205618,0.22648 0.351197,0.29312 0,0 -1.108556,0.72831 -1.108556,0.72831 v 0 c -0.158078,-0.0877 -0.293421,-0.19595 -0.38643,-0.35465 -0.167158,-0.26709 -0.288358,-0.55997 -0.375464,-0.86258 -0.142349,-0.47379 -0.239766,-0.95976 -0.308476,-1.44956 -0.08802,-0.63766 -0.142658,-1.28021 -0.145295,-1.9243 -0.0076,-0.66082 0.01466,-1.32045 0.05646,-1.98005 0.02297,-0.44454 0.05043,-0.89299 0.0057,-1.33687 0,0 1.176505,-0.61595 1.176505,-0.61595 z"
           inkscape:connector-curvature="0" />
        <path
           style="opacity:1;fill:#000000;fill-opacity:1;stroke:#000000;stroke-width:0.5;stroke-linecap:round;stroke-linejoin:miter;stroke-miterlimit:4;stroke-dasharray:none;stroke-dashoffset:0;stroke-opacity:1"
           id="path877"
           d="m 65.017239,212.27018 c 0.347813,-0.0327 0.696651,-0.0511 1.045618,-0.0657 0.495424,-0.0171 0.991113,-0.0243 1.486773,-0.0305 0.495945,-0.005 0.991909,-0.009 1.487873,-0.0119 0.342795,-0.002 0.685586,-0.004 1.028375,-0.007 0,0 -1.070864,0.77852 -1.070864,0.77852 v 0 c -0.339823,-5.3e-4 -0.679648,-5.3e-4 -1.019471,5.3e-4 -0.494903,0.002 -0.989812,0.004 -1.484681,0.0109 -0.496189,0.007 -0.992473,0.0147 -1.488265,0.0369 -0.350837,0.0175 -0.702164,0.0366 -1.050671,0.0823 0,0 1.065313,-0.79442 1.065313,-0.79442 z"
           inkscape:connector-curvature="0" />
      </g>
      <rect
         y="160.46391"
         x="29.942766"
         height="53.021519"
         width="74.150131"
         id="rect963"
         style="opacity:1;fill:none;fill-opacity:1;stroke:#000000;stroke-width:2.65670109;stroke-linecap:round;stroke-linejoin:miter;stroke-miterlimit:4;stroke-dasharray:none;stroke-dashoffset:0;stroke-opacity:1" />
      <path
         inkscape:connector-curvature="0"
         id="path967"
         d="M 30.602361,181.21861 H 103.0324"
         style="opacity:1;fill:none;fill-opacity:1;stroke:#000000;stroke-width:1.22099996;stroke-linecap:round;stroke-linejoin:miter;stroke-miterlimit:4;stroke-dasharray:1.22099992, 9.76799934;stroke-dashoffset:1.95359981;stroke-opacity:1" />
      <path
         inkscape:connector-curvature="0"
         id="path969"
         d="M 30.201457,194.27782 H 103.83421"
         style="opacity:1;fill:none;fill-opacity:1;stroke:#000000;stroke-width:1.22099996;stroke-linecap:round;stroke-linejoin:miter;stroke-miterlimit:4;stroke-dasharray:1.22099992, 9.76799934;stroke-dashoffset:1.95359981;stroke-opacity:1" />
    </g>
    <g
       id="g995"
       transform="translate(-0.96075918)">
      <path
         inkscape:connector-curvature="0"
         d="m 117.09303,185.87337 c 0.23266,0.43566 0.40189,0.89977 0.56963,1.36303 0.22018,0.63431 0.40096,1.28098 0.57146,1.9301 0.16826,0.5927 0.32554,1.1883 0.49061,1.78191 0.10554,0.40354 0.19682,0.81246 0.3468,1.20255 0.0358,0.0611 0.0817,0.24467 0.1769,0.2635 0.0447,0.009 0.14945,-0.10348 0.10937,-0.0819 -0.50954,0.2747 -1.01277,0.56095 -1.51916,0.84141 0.41209,-0.37976 0.68123,-0.88917 0.96544,-1.3656 0.45065,-0.75513 0.87078,-1.5277 1.29866,-2.29576 0.31767,-0.57866 0.64044,-1.15423 0.9417,-1.74168 0.12233,-0.24637 0.25045,-0.49007 0.36715,-0.73921 0.005,-0.0152 0.01,-0.0305 0.0149,-0.0457 0,0 1.70072,-0.81162 1.70072,-0.81162 v 0 c -0.004,0.0192 -0.008,0.0383 -0.0125,0.0575 -0.0652,0.2768 -0.26569,0.51002 -0.36993,0.77249 -0.30755,0.59153 -0.63369,1.17237 -0.95692,1.75542 -0.43116,0.76535 -0.84652,1.53966 -1.29217,2.29685 -0.28134,0.48821 -0.56015,0.98107 -0.91377,1.42144 -0.75329,0.43625 -1.70872,1.62775 -2.14682,0.58392 -0.15272,-0.39641 -0.24408,-0.81282 -0.34662,-1.2242 -0.15953,-0.59628 -0.31826,-1.19273 -0.48533,-1.78693 -0.16804,-0.64365 -0.34596,-1.28501 -0.56608,-1.91312 -0.16641,-0.45168 -0.33002,-0.9072 -0.57201,-1.3254 0,0 1.62799,-0.93896 1.62799,-0.93896 z"
         id="path971"
         style="opacity:1;fill:#000000;fill-opacity:1;stroke:#000000;stroke-width:1.22099996;stroke-linecap:round;stroke-linejoin:miter;stroke-miterlimit:4;stroke-dasharray:none;stroke-dashoffset:7.38368511;stroke-opacity:1" />
      <path
         inkscape:connector-curvature="0"
         d="m 130.99657,185.59411 c -0.29693,0.21341 -0.59313,0.42787 -0.8881,0.64401 -0.24223,0.17747 -0.47609,0.36546 -0.71068,0.55269 -0.15819,0.11586 -0.30018,0.25172 -0.43659,0.39206 -0.096,0.1075 -0.19211,0.22957 -0.21746,0.37423 -0.0173,0.16622 0.061,0.30973 0.14387,0.44732 0.1311,0.21079 0.30379,0.39063 0.48226,0.56147 0.21964,0.21362 0.44148,0.42583 0.65229,0.64836 0.22346,0.24917 0.38296,0.53603 0.50595,0.84511 0.11189,0.3126 0.17444,0.63905 0.22043,0.96691 0.0431,0.35014 -0.0233,0.67401 -0.17343,0.98902 -0.52275,0.84094 -1.7071,1.27711 -2.45892,1.71176 -0.35139,0.18042 -0.72641,0.31265 -1.10584,0.4204 -0.0481,0.013 -0.0961,0.0259 -0.14421,0.0389 0,0 1.4861,-1.14306 1.4861,-1.14306 v 0 c 0.0468,-0.0137 0.0937,-0.0273 0.14052,-0.041 0.37044,-0.11956 0.73822,-0.25296 1.07561,-0.45018 -0.47015,0.27261 -0.94128,0.54355 -1.41045,0.81783 -0.0587,0.0343 0.12144,-0.0616 0.17892,-0.0979 0.20211,-0.12765 0.39065,-0.29681 0.52884,-0.49098 0.17176,-0.27297 0.25252,-0.55665 0.22497,-0.88186 -0.0407,-0.314 -0.0951,-0.6274 -0.19846,-0.9277 -0.11141,-0.28803 -0.25952,-0.553 -0.47065,-0.78133 -0.21148,-0.219 -0.42883,-0.43265 -0.64948,-0.64235 -0.1866,-0.18494 -0.37171,-0.37493 -0.5098,-0.60014 -0.10197,-0.16652 -0.19874,-0.347 -0.20091,-0.54704 -0.003,-0.19004 0.0564,-0.33392 0.1656,-0.49 0.13042,-0.15235 0.27338,-0.29587 0.42816,-0.4229 0.24066,-0.18379 0.47175,-0.37834 0.71261,-0.562 0.2982,-0.2078 0.58745,-0.42772 0.88156,-0.64148 0,0 1.74729,-0.69017 1.74729,-0.69017 z"
         id="path973"
         style="opacity:1;fill:#000000;fill-opacity:1;stroke:#000000;stroke-width:1.22099996;stroke-linecap:round;stroke-linejoin:miter;stroke-miterlimit:4;stroke-dasharray:none;stroke-dashoffset:27.90684128;stroke-opacity:1" />
    </g>
  </g>
</svg>
